# Made in Blockbench 5.2.1
mtllib wind_generator_blades.mtl

o blade_center
v -0.12499999999999999 -0.12499999999999999 -0.25000124999999995
v -0.125 -0.125 -0.43750124999999995
v -0.12499999999999999 0.12500000000000003 -0.25000125
v -0.125 0.12499999999999999 -0.43750125
v 0.12499999999999999 -0.125 -0.43750125
v 0.12500000000000003 -0.12499999999999999 -0.25000125
v 0.12499999999999999 0.12499999999999999 -0.43750125000000006
v 0.12500000000000003 0.12500000000000003 -0.25000125000000006
vt 0.1796875 0.78125
vt 0.2109375 0.78125
vt 0.2109375 0.75
vt 0.1796875 0.75
vt 0.15625 0.78125
vt 0.1796875 0.78125
vt 0.1796875 0.75
vt 0.15625 0.75
vt 0.234375 0.78125
vt 0.265625 0.78125
vt 0.265625 0.75
vt 0.234375 0.75
vt 0.2109375 0.78125
vt 0.234375 0.78125
vt 0.234375 0.75
vt 0.2109375 0.75
vt 0.2109375 0.78125
vt 0.1796875 0.78125
vt 0.1796875 0.8046875
vt 0.2109375 0.8046875
vt 0.2421875 0.8046875
vt 0.2109375 0.8046875
vt 0.2109375 0.78125
vt 0.2421875 0.78125
vn -1.2246467991473532e-16 -1.2246467991473532e-16 -1
vn -1 0 1.2246467991473532e-16
vn 1.2246467991473532e-16 1.2246467991473532e-16 1
vn 1 0 -1.2246467991473532e-16
vn 1.4997597826618576e-32 -1 1.2246467991473532e-16
vn -1.4997597826618576e-32 1 -1.2246467991473532e-16
usemtl m_6bbea4dc-b2c1-952e-8226-45e26a80f6bc
f 4/4/1 7/3/1 5/2/1 2/1/1
f 3/8/2 4/7/2 2/6/2 1/5/2
f 8/12/3 3/11/3 1/10/3 6/9/3
f 7/16/4 8/15/4 6/14/4 5/13/4
f 6/20/5 1/19/5 2/18/5 5/17/5
f 7/24/6 4/23/6 3/22/6 8/21/6
o blades_cap
v -0.06250000000000001 -0.06250000000000001 -0.43750125
v -0.06250000000000001 -0.06250000000000001 -0.50000125
v -0.06250000000000001 0.06249999999999999 -0.43750125
v -0.06250000000000001 0.062499999999999986 -0.50000125
v 0.062499999999999986 -0.06250000000000001 -0.50000125
v 0.06249999999999999 -0.06250000000000001 -0.43750125
v 0.062499999999999986 0.062499999999999986 -0.5000012500000001
v 0.06249999999999999 0.06249999999999999 -0.43750125
vt 0.1796875 0.9921875
vt 0.1953125 0.9921875
vt 0.1953125 0.9765625
vt 0.1796875 0.9765625
vt 0.171875 0.9921875
vt 0.1796875 0.9921875
vt 0.1796875 0.9765625
vt 0.171875 0.9765625
vt 0.1953125 0.9921875
vt 0.203125 0.9921875
vt 0.203125 0.9765625
vt 0.1953125 0.9765625
vt 0.1953125 0.9921875
vt 0.1796875 0.9921875
vt 0.1796875 1
vt 0.1953125 1
vt 0.2109375 1
vt 0.1953125 1
vt 0.1953125 0.9921875
vt 0.2109375 0.9921875
vn -1.2246467991473532e-16 -1.2246467991473532e-16 -1
vn -1 0 1.2246467991473532e-16
vn 1 0 -1.2246467991473532e-16
vn 1.4997597826618576e-32 -1 1.2246467991473532e-16
vn -1.4997597826618576e-32 1 -1.2246467991473532e-16
usemtl m_6bbea4dc-b2c1-952e-8226-45e26a80f6bc
f 12/28/7 15/27/7 13/26/7 10/25/7
f 11/32/8 12/31/8 10/30/8 9/29/8
f 15/36/9 16/35/9 14/34/9 13/33/9
f 14/40/10 9/39/10 10/38/10 13/37/10
f 15/44/11 12/43/11 11/42/11 16/41/11
o blade_1a
v -0.06249999999999999 7.730429838767774e-18 -0.31187624999999997
v -0.0625 7.638734409681693e-20 -0.37437624999999997
v -0.06249999999999999 2 -0.31187625000000024
v -0.0625 2 -0.37437625000000024
v 0.0625 7.638734409681693e-20 -0.37437625
v 0.06250000000000001 7.730429838767774e-18 -0.31187625
v 0.0625 2 -0.37437625000000024
v 0.06250000000000001 2 -0.31187625000000024
vt 0.1640625 0.7421875
vt 0.1796875 0.7421875
vt 0.1796875 0.4921875
vt 0.1640625 0.4921875
vt 0.15625 0.7421875
vt 0.1640625 0.7421875
vt 0.1640625 0.4921875
vt 0.15625 0.4921875
vt 0.1875 0.7421875
vt 0.203125 0.7421875
vt 0.203125 0.4921875
vt 0.1875 0.4921875
vt 0.1796875 0.7421875
vt 0.1875 0.7421875
vt 0.1875 0.4921875
vt 0.1796875 0.4921875
vt 0.1953125 0.75
vt 0.1796875 0.75
vt 0.1796875 0.7421875
vt 0.1953125 0.7421875
vn -1.2246467991473532e-16 -1.2246467991473532e-16 -1
vn -1 0 1.2246467991473532e-16
vn 1.2246467991473532e-16 1.2246467991473532e-16 1
vn 1 0 -1.2246467991473532e-16
vn -1.4997597826618576e-32 1 -1.2246467991473532e-16
usemtl m_6bbea4dc-b2c1-952e-8226-45e26a80f6bc
f 20/48/12 23/47/12 21/46/12 18/45/12
f 19/52/13 20/51/13 18/50/13 17/49/13
f 24/56/14 19/55/14 17/54/14 22/53/14
f 23/60/15 24/59/15 22/58/15 21/57/15
f 23/64/16 20/63/16 19/62/16 24/61/16
o blade_1b
v 7.382109982832379e-18 7.91634375955029e-18 -0.31250125
v -1.4764515256066603e-22 -1.5833004179287894e-22 -0.37500125
v -0.06107411922937669 1.7489339472834178 -0.31250125000000023
v -0.061074119229376694 1.7489339472834178 -0.37500125000000023
v 0.12492385337738698 0.004362437087812621 -0.37500125
v 0.124923853377387 0.004362437087812629 -0.31250125
v 0.06384973414801029 1.7532963843712304 -0.37500125000000023
v 0.0638497341480103 1.7532963843712304 -0.31250125000000023
vt 0.2109375 0.7421875
vt 0.2265625 0.7421875
vt 0.2265625 0.5234375
vt 0.2109375 0.5234375
vt 0.203125 0.7421875
vt 0.2109375 0.7421875
vt 0.2109375 0.5234375
vt 0.203125 0.5234375
vt 0.234375 0.7421875
vt 0.25 0.7421875
vt 0.25 0.5234375
vt 0.234375 0.5234375
vt 0.2265625 0.7421875
vt 0.234375 0.7421875
vt 0.234375 0.5234375
vt 0.2265625 0.5234375
vt 0.2421875 0.75
vt 0.2265625 0.75
vt 0.2265625 0.7421875
vt 0.2421875 0.7421875
vn -1.1811612204775903e-16 -1.2666403343347334e-16 -1
vn -0.9993908270190959 -0.03489949670250097 1.2246467991473535e-16
vn 1.1811612204775903e-16 1.2666403343347334e-16 1
vn 0.9993908270190959 0.03489949670250097 -1.2246467991473535e-16
vn -0.03489949670250097 0.9993908270190959 -1.2246467991473537e-16
usemtl m_6bbea4dc-b2c1-952e-8226-45e26a80f6bc
f 28/68/17 31/67/17 29/66/17 26/65/17
f 27/72/18 28/71/18 26/70/18 25/69/18
f 32/76/19 27/75/19 25/74/19 30/73/19
f 31/80/20 32/79/20 30/78/20 29/77/20
f 31/84/21 28/83/21 27/82/21 32/81/21
o blade_2a
v 1.7008008075688772 -1.0541265877365278 -0.31250124999999973
v 1.7008008075688772 -1.0541265877365278 -0.37500124999999973
v -0.031250000000000014 -0.0541265877365274 -0.31250125
v -0.031250000000000014 -0.05412658773652741 -0.37500125
v 1.7633008075688772 -0.945873412263473 -0.3750012499999998
v 1.7633008075688772 -0.945873412263473 -0.3125012499999998
v 0.031250000000000014 0.05412658773652741 -0.37500125
v 0.031250000000000014 0.054126587736527426 -0.31250125
vt 0.1640625 0.7421875
vt 0.1796875 0.7421875
vt 0.1796875 0.4921875
vt 0.1640625 0.4921875
vt 0.15625 0.7421875
vt 0.1640625 0.7421875
vt 0.1640625 0.4921875
vt 0.15625 0.4921875
vt 0.1875 0.7421875
vt 0.203125 0.7421875
vt 0.203125 0.4921875
vt 0.1875 0.4921875
vt 0.1796875 0.7421875
vt 0.1875 0.7421875
vt 0.1875 0.4921875
vt 0.1796875 0.4921875
vt 0.1796875 0.7421875
vt 0.1640625 0.7421875
vt 0.1640625 0.75
vt 0.1796875 0.75
vn 4.4825183915122994e-17 -1.6728986382985836e-16 -1
vn -0.5000000000000002 -0.8660254037844386 1.2246467991473535e-16
vn -4.4825183915122994e-17 1.6728986382985836e-16 1
vn 0.5000000000000002 0.8660254037844386 -1.2246467991473535e-16
vn 0.8660254037844386 -0.5000000000000002 1.2246467991473535e-16
usemtl m_6bbea4dc-b2c1-952e-8226-45e26a80f6bc
f 36/88/22 39/87/22 37/86/22 34/85/22
f 35/92/23 36/91/23 34/90/23 33/89/23
f 40/96/24 35/95/24 33/94/24 38/93/24
f 39/100/25 40/99/25 38/98/25 37/97/25
f 38/104/26 33/103/26 34/102/26 37/101/26
o blade_2b
v 1.4864743421548856 -0.931943683982675 -0.3131262499999998
v 1.4864743421548856 -0.931943683982675 -0.3756262499999998
v -0.05868394534823637 -0.11036844910736585 -0.31312625
v -0.05868394534823637 -0.11036844910736586 -0.37562625
v 1.545158287503122 -0.8215752348753091 -0.3756262499999998
v 1.545158287503122 -0.8215752348753091 -0.3131262499999998
v 3.171092630916252e-20 -1.0372176635288192e-19 -0.37562625
v -3.1330521783977015e-18 1.024775192155957e-17 -0.31312625
vt 0.2109375 0.7421875
vt 0.2265625 0.7421875
vt 0.2265625 0.5234375
vt 0.2109375 0.5234375
vt 0.203125 0.7421875
vt 0.2109375 0.7421875
vt 0.2109375 0.5234375
vt 0.203125 0.5234375
vt 0.234375 0.7421875
vt 0.25 0.7421875
vt 0.25 0.5234375
vt 0.234375 0.5234375
vt 0.2265625 0.7421875
vt 0.234375 0.7421875
vt 0.234375 0.5234375
vt 0.2265625 0.5234375
vt 0.2265625 0.7421875
vt 0.2109375 0.7421875
vt 0.2109375 0.75
vt 0.2265625 0.75
vn 5.063620967530982e-17 -1.6562357900659923e-16 -1
vn -0.469471562785891 -0.8829475928589269 1.2246467991473532e-16
vn -5.063620967530982e-17 1.6562357900659923e-16 1
vn 0.469471562785891 0.8829475928589269 -1.2246467991473532e-16
vn 0.8829475928589269 -0.469471562785891 1.2246467991473535e-16
usemtl m_6bbea4dc-b2c1-952e-8226-45e26a80f6bc
f 44/108/27 47/107/27 45/106/27 42/105/27
f 43/112/28 44/111/28 42/110/28 41/109/28
f 48/116/29 43/115/29 41/114/29 46/113/29
f 47/120/30 48/119/30 46/118/30 45/117/30
f 46/124/31 41/123/31 42/122/31 45/121/31
o blade_3a
v -1.7633008075688772 -0.945873412263473 -0.31250124999999973
v -1.7633008075688772 -0.945873412263473 -0.37500124999999973
v -0.03125 0.05412658773652741 -0.31250125
v -0.031250000000000014 0.05412658773652741 -0.37500125
v -1.7008008075688772 -1.0541265877365278 -0.3750012499999998
v -1.7008008075688772 -1.0541265877365278 -0.3125012499999998
v 0.031250000000000014 -0.05412658773652741 -0.37500125
v 0.03125000000000003 -0.05412658773652741 -0.31250125
vt 0.1640625 0.7421875
vt 0.1796875 0.7421875
vt 0.1796875 0.4921875
vt 0.1640625 0.4921875
vt 0.15625 0.7421875
vt 0.1640625 0.7421875
vt 0.1640625 0.4921875
vt 0.15625 0.4921875
vt 0.1875 0.7421875
vt 0.203125 0.7421875
vt 0.203125 0.4921875
vt 0.1875 0.4921875
vt 0.1796875 0.7421875
vt 0.1875 0.7421875
vt 0.1875 0.4921875
vt 0.1796875 0.4921875
vt 0.1796875 0.7421875
vt 0.1640625 0.7421875
vt 0.1640625 0.75
vt 0.1796875 0.75
vn -1.6728986382985836e-16 4.4825183915122994e-17 -1
vn -0.5000000000000002 0.8660254037844386 1.2246467991473535e-16
vn 1.6728986382985836e-16 -4.4825183915122994e-17 1
vn 0.5000000000000002 -0.8660254037844386 -1.2246467991473535e-16
vn -0.8660254037844386 -0.5000000000000002 1.2246467991473535e-16
usemtl m_6bbea4dc-b2c1-952e-8226-45e26a80f6bc
f 52/128/32 55/127/32 53/126/32 50/125/32
f 51/132/33 52/131/33 50/130/33 49/129/33
f 56/136/34 51/135/34 49/134/34 54/133/34
f 55/140/35 56/139/35 54/138/35 53/137/35
f 54/144/36 49/143/36 50/142/36 53/141/36
o blade_3b
v -1.5503240763028958 -0.8213527003885549 -0.3131262499999998
v -1.5503240763028958 -0.8213527003885549 -0.3756262499999998
v -0.06623990802915057 0.10600601201955324 -0.31312625
v -0.06623990802915058 0.10600601201955324 -0.37562625
v -1.4840841682737453 -0.9273587124081082 -0.3756262499999998
v -1.4840841682737453 -0.9273587124081082 -0.3131262499999998
v -1.0568114774157102e-19 2.4398415415169898e-20 -0.37562625
v 1.0441339584950234e-17 -2.410573182905199e-18 -0.31312625
vt 0.2109375 0.7421875
vt 0.2265625 0.7421875
vt 0.2265625 0.5234375
vt 0.2109375 0.5234375
vt 0.203125 0.7421875
vt 0.2109375 0.7421875
vt 0.2109375 0.5234375
vt 0.203125 0.5234375
vt 0.234375 0.7421875
vt 0.25 0.7421875
vt 0.25 0.5234375
vt 0.234375 0.5234375
vt 0.2265625 0.7421875
vt 0.234375 0.7421875
vt 0.234375 0.5234375
vt 0.2265625 0.5234375
vt 0.2265625 0.7421875
vt 0.2109375 0.7421875
vt 0.2109375 0.75
vt 0.2265625 0.75
vn -1.687523317230689e-16 3.8959545573125934e-17 -1
vn -0.5299192642332048 0.8480480961564262 1.224646799147353e-16
vn 1.687523317230689e-16 -3.8959545573125934e-17 1
vn 0.5299192642332048 -0.8480480961564262 -1.224646799147353e-16
vn -0.8480480961564262 -0.5299192642332048 1.2246467991473535e-16
usemtl m_6bbea4dc-b2c1-952e-8226-45e26a80f6bc
f 60/148/37 63/147/37 61/146/37 58/145/37
f 59/152/38 60/151/38 58/150/38 57/149/38
f 64/156/39 59/155/39 57/154/39 62/153/39
f 63/160/40 64/159/40 62/158/40 61/157/40
f 62/164/41 57/163/41 58/162/41 61/161/41