# Made in Blockbench 5.2.1
mtllib wind_generator.mtl

o base_rim
v -0.375 0.06249999999999999 0.37623624999999994
v -0.3750000000000001 0.0624999999999999 -0.37376375000000006
v -0.375 0.1875 0.37623624999999994
v -0.3750000000000001 0.18749999999999992 -0.37376375000000006
v 0.3749999999999999 0.0624999999999999 -0.37376375000000017
v 0.375 0.06249999999999999 0.37623624999999983
v 0.3749999999999999 0.18749999999999992 -0.37376375000000017
v 0.375 0.1875 0.37623624999999983
vt 0.296875 0.515625
vt 0.390625 0.515625
vt 0.390625 0.5
vt 0.296875 0.5
vt 0.203125 0.515625
vt 0.296875 0.515625
vt 0.296875 0.5
vt 0.203125 0.5
vt 0.484375 0.515625
vt 0.578125 0.515625
vt 0.578125 0.5
vt 0.484375 0.5
vt 0.390625 0.515625
vt 0.484375 0.515625
vt 0.484375 0.5
vt 0.390625 0.5
vt 0.484375 0.609375
vt 0.390625 0.609375
vt 0.390625 0.515625
vt 0.484375 0.515625
vn -1.2246467991473532e-16 -1.2246467991473532e-16 -1
vn -1 0 1.2246467991473532e-16
vn 1.2246467991473532e-16 1.2246467991473532e-16 1
vn 1 0 -1.2246467991473532e-16
vn -1.4997597826618576e-32 1 -1.2246467991473532e-16
usemtl m_6bbea4dc-b2c1-952e-8226-45e26a80f6bc
f 4/4/1 7/3/1 5/2/1 2/1/1
f 3/8/2 4/7/2 2/6/2 1/5/2
f 8/12/3 3/11/3 1/10/3 6/9/3
f 7/16/4 8/15/4 6/14/4 5/13/4
f 7/20/5 4/19/5 3/18/5 8/17/5
o head
v -0.21875 4.28125 0.3137362499999994
v -0.21875000000000006 4.28125 -0.24876375000000062
v -0.21875 4.71875 0.3137362499999993
v -0.21875000000000006 4.71875 -0.24876375000000067
v 0.2187499999999999 4.28125 -0.24876375000000067
v 0.21875 4.28125 0.3137362499999993
v 0.2187499999999999 4.71875 -0.24876375000000073
v 0.21875 4.71875 0.3137362499999993
vt 0.28125 0.875
vt 0.2265625 0.875
vt 0.2265625 0.9296875
vt 0.28125 0.9296875
vt 0.15625 0.875
vt 0.2265625 0.875
vt 0.2265625 0.9296875
vt 0.15625 0.9296875
vt 0.3515625 0.9296875
vt 0.40625 0.9296875
vt 0.40625 0.875
vt 0.3515625 0.875
vt 0.28125 0.875
vt 0.3515625 0.875
vt 0.3515625 0.9296875
vt 0.28125 0.9296875
vt 0.2265625 0.9296875
vt 0.28125 0.9296875
vt 0.28125 1
vt 0.2265625 1
vt 0.28125 1
vt 0.3359375 1
vt 0.3359375 0.9296875
vt 0.28125 0.9296875
vn -1.2246467991473532e-16 -1.2246467991473532e-16 -1
vn -1 0 1.2246467991473532e-16
vn 1.2246467991473532e-16 1.2246467991473532e-16 1
vn 1 0 -1.2246467991473532e-16
vn 1.4997597826618576e-32 -1 1.2246467991473532e-16
vn -1.4997597826618576e-32 1 -1.2246467991473532e-16
usemtl m_6bbea4dc-b2c1-952e-8226-45e26a80f6bc
f 12/24/6 15/23/6 13/22/6 10/21/6
f 11/28/7 12/27/7 10/26/7 9/25/7
f 16/32/8 11/31/8 9/30/8 14/29/8
f 15/36/9 16/35/9 14/34/9 13/33/9
f 14/40/10 9/39/10 10/38/10 13/37/10
f 15/44/11 12/43/11 11/42/11 16/41/11
o plate_connector1
v -0.12500000000000006 0.18749999999999992 -0.21751375000000012
v -0.1250000000000001 0.18749999999999992 -0.3425137500000001
v -0.12500000000000006 0.31249999999999994 -0.21751375000000017
v -0.1250000000000001 0.3124999999999999 -0.34251375000000017
v 0.12499999999999989 0.18749999999999992 -0.34251375000000017
v 0.12499999999999989 0.18749999999999992 -0.21751375000000017
v 0.12499999999999989 0.3124999999999999 -0.34251375000000017
v 0.12499999999999989 0.31249999999999994 -0.21751375000000017
vt 0.015625 0.3984375
vt 0.046875 0.3984375
vt 0.046875 0.3828125
vt 0.015625 0.3828125
vt 0 0.3984375
vt 0.015625 0.3984375
vt 0.015625 0.3828125
vt 0 0.3828125
vt 0.046875 0.3984375
vt 0.0625 0.3984375
vt 0.0625 0.3828125
vt 0.046875 0.3828125
vt 0.046875 0.3984375
vt 0.015625 0.3984375
vt 0.015625 0.4140625
vt 0.046875 0.4140625
vn -1.2246467991473532e-16 -1.2246467991473532e-16 -1
vn -1 0 1.2246467991473532e-16
vn 1 0 -1.2246467991473532e-16
vn 1.4997597826618576e-32 -1 1.2246467991473532e-16
usemtl m_6bbea4dc-b2c1-952e-8226-45e26a80f6bc
f 20/48/12 23/47/12 21/46/12 18/45/12
f 19/52/13 20/51/13 18/50/13 17/49/13
f 23/56/14 24/55/14 22/54/14 21/53/14
f 22/60/15 17/59/15 18/58/15 21/57/15
o plate_connector2
v -0.18750000000000006 0.31249999999999994 -0.24876375000000012
v -0.1875000000000001 0.3124999999999999 -0.43626375000000017
v -0.18750000000000006 0.6874999999999999 -0.24876375000000017
v -0.1875000000000001 0.6874999999999999 -0.43626375000000017
v 0.1874999999999999 0.3124999999999999 -0.43626375000000017
v 0.1874999999999999 0.31249999999999994 -0.24876375000000017
v 0.1874999999999999 0.6874999999999999 -0.4362637500000002
v 0.1874999999999999 0.6874999999999999 -0.24876375000000023
vt 0.328125 0.65625
vt 0.40625 0.65625
vt 0.40625 0.609375
vt 0.328125 0.609375
vt 0.453125 0.65625
vt 0.53125 0.65625
vt 0.53125 0.609375
vt 0.453125 0.609375
vt 0.5 0.65625
vt 0.453125 0.65625
vt 0.453125 0.6796875
vt 0.5 0.6796875
vt 0.453125 0.6796875
vt 0.40625 0.6796875
vt 0.40625 0.65625
vt 0.453125 0.65625
vn -1 0 1.2246467991473532e-16
vn 1 0 -1.2246467991473532e-16
vn 1.4997597826618576e-32 -1 1.2246467991473532e-16
vn -1.4997597826618576e-32 1 -1.2246467991473532e-16
usemtl m_6bbea4dc-b2c1-952e-8226-45e26a80f6bc
f 27/64/16 28/63/16 26/62/16 25/61/16
f 31/68/17 32/67/17 30/66/17 29/65/17
f 30/72/18 25/71/18 26/70/18 29/69/18
f 31/76/19 28/75/19 27/74/19 32/73/19
o wire
v -0.06250000000000006 0.31301155057941904 -0.17807697419713686
v -0.06250000000000011 0.3173739876672317 -0.30300082757452385
v -0.06250000000000006 4.373036785344494 -0.03629776884322605
v -0.06250000000000011 4.377399222432307 -0.16122162222061304
v 0.06249999999999989 0.3173739876672317 -0.30300082757452385
v 0.06249999999999989 0.31301155057941904 -0.17807697419713686
v 0.06249999999999989 4.377399222432307 -0.16122162222061304
v 0.06249999999999989 4.373036785344494 -0.03629776884322605
vt 0.609375 0.4765625
vt 0.59375 0.4765625
vt 0.59375 0.984375
vt 0.609375 0.984375
vt 0.59375 0.4765625
vt 0.578125 0.4765625
vt 0.578125 0.984375
vt 0.59375 0.984375
vt 0.625 0.4765625
vt 0.609375 0.4765625
vt 0.609375 0.984375
vt 0.625 0.984375
vt 0.59375 1
vt 0.609375 1
vt 0.609375 0.984375
vt 0.59375 0.984375
vt 0.609375 0.984375
vt 0.625 0.984375
vt 0.625 1
vt 0.609375 1
vn -1.223900777406162e-16 0.03489949670250114 -0.9993908270190959
vn -1 0 1.2246467991473532e-16
vn 1 0 -1.2246467991473532e-16
vn -4.273955692857163e-18 -0.9993908270190958 -0.03489949670250114
vn 4.273955692857163e-18 0.9993908270190958 0.03489949670250114
usemtl m_6bbea4dc-b2c1-952e-8226-45e26a80f6bc
f 36/80/20 39/79/20 37/78/20 34/77/20
f 35/84/21 36/83/21 34/82/21 33/81/21
f 39/88/22 40/87/22 38/86/22 37/85/22
f 38/92/23 33/91/23 34/90/23 37/89/23
f 39/96/24 36/95/24 35/94/24 40/93/24
o rear_plate_1
v -0.15625000000000028 4.304100496557782 0.4373387670826986
v -0.15625000000000028 4.2812499946693165 0.25123636364994983
v -0.15625000000000028 4.676305303423278 0.39163776330576816
v -0.15625000000000028 4.653454801534813 0.2055353598730194
v 0.15624999999999956 4.2812499946693165 0.2512363636499497
v 0.15624999999999967 4.304100496557782 0.4373387670826985
v 0.15624999999999956 4.653454801534813 0.2055353598730193
v 0.15624999999999967 4.676305303423278 0.39163776330576805
vt 0.15625 0.8515625
vt 0.1796875 0.8515625
vt 0.1796875 0.8046875
vt 0.15625 0.8046875
vt 0.2421875 0.8515625
vt 0.28125 0.8515625
vt 0.28125 0.8046875
vt 0.2421875 0.8046875
vt 0.21875 0.8515625
vt 0.2421875 0.8515625
vt 0.2421875 0.8046875
vt 0.21875 0.8046875
vt 0.21875 0.8515625
vt 0.2578125 0.8515625
vt 0.2578125 0.875
vt 0.21875 0.875
vt 0.1796875 0.875
vt 0.21875 0.875
vt 0.21875 0.8515625
vt 0.1796875 0.8515625
vn -1 -3.081487911019578e-33 1.2246467991473532e-16
vn 1.2155184676135686e-16 0.12186934340514757 0.9925461516413221
vn 1 3.081487911019578e-33 -1.2246467991473532e-16
vn 1.4924690131530354e-17 -0.992546151641322 0.12186934340514755
vn -1.4924690131530354e-17 0.992546151641322 -0.12186934340514755
usemtl m_6bbea4dc-b2c1-952e-8226-45e26a80f6bc
f 43/100/25 44/99/25 42/98/25 41/97/25
f 48/104/26 43/103/26 41/102/26 46/101/26
f 47/108/27 48/107/27 46/106/27 45/105/27
f 46/112/28 41/111/28 42/110/28 45/109/28
f 47/116/29 44/115/29 43/114/29 48/113/29
o rear_plate_2
v -0.09375000000000033 4.325494375616234 0.49987066923824053
v -0.09375000000000033 4.299505414264015 0.3776022191465148
v -0.09375000000000033 4.631165500845549 0.43489826585769076
v -0.09375000000000033 4.605176539493329 0.31262981576596505
v 0.09374999999999967 4.299505414264015 0.3776022191465147
v 0.09374999999999967 4.325494375616234 0.4998706692382404
v 0.09374999999999967 4.605176539493329 0.31262981576596494
v 0.09374999999999967 4.631165500845549 0.43489826585769065
vt 0 0.859375
vt 0.015625 0.859375
vt 0.015625 0.8203125
vt 0 0.8203125
vt 0.0546875 0.859375
vt 0.078125 0.859375
vt 0.078125 0.8203125
vt 0.0546875 0.8203125
vt 0.0390625 0.859375
vt 0.0546875 0.859375
vt 0.0546875 0.8203125
vt 0.0390625 0.8203125
vt 0.0390625 0.859375
vt 0.015625 0.859375
vt 0.015625 0.875
vt 0.0390625 0.875
vt 0.0625 0.875
vt 0.0390625 0.875
vt 0.0390625 0.859375
vt 0.0625 0.859375
vn -1 -9.244463733058733e-33 1.224646799147353e-16
vn 1.1978853283323187e-16 0.20791169081775931 0.9781476007338057
vn 1 9.244463733058733e-33 -1.224646799147353e-16
vn 2.546183866652831e-17 -0.9781476007338057 0.20791169081775926
vn -2.546183866652831e-17 0.9781476007338057 -0.20791169081775926
usemtl m_6bbea4dc-b2c1-952e-8226-45e26a80f6bc
f 51/120/30 52/119/30 50/118/30 49/117/30
f 56/124/31 51/123/31 49/122/31 54/121/31
f 55/128/32 56/127/32 54/126/32 53/125/32
f 54/132/33 49/131/33 50/130/33 53/129/33
f 55/136/34 52/135/34 51/134/34 56/133/34
o post1a
v -0.007731832281670015 0.11927385365082722 0.009067941652924572
v -0.008112449428572477 0.13017330267334687 -0.3032416917905433
v -0.1559643389879365 4.36409746045296 0.15739080263855465
v -0.15634495613483895 4.37499690947548 -0.1549188308049132
v 0.30419718401489537 0.14107939539287845 -0.30324169179054333
v 0.3045778011617979 0.13017994637035882 0.00906794165292446
v 0.15596467730862895 4.385903002195011 -0.15491883080491325
v 0.15634529445553147 4.375003553172491 0.15739080263855454
vt 0.0390625 0.9609375
vt 0.078125 0.9609375
vt 0.078125 0.4296875
vt 0.0390625 0.4296875
vt 0.078125 0.9609375
vt 0.1171875 0.9609375
vt 0.1171875 0.4296875
vt 0.078125 0.4296875
vn -0.0012179748700880046 0.03487823687206282 -0.9993908270190958
vn 0.9993908270190959 0.034899496702500976 -1.220811646218678e-16
usemtl m_6bbea4dc-b2c1-952e-8226-45e26a80f6bc
f 60/140/35 63/139/35 61/138/35 58/137/35
f 63/144/36 64/143/36 62/142/36 61/141/36
o post1b
v -0.3041971850999829 0.14107936431999668 0.30571364394330236
v -0.30457780224688535 0.13017991529747705 -0.006595989500165489
v -0.1559646783937168 4.3859029711221185 0.15739078295767273
v -0.15634529554061932 4.375003522099599 -0.15491885048579523
v 0.007731831196581607 0.1192738225779455 -0.006595989500165544
v 0.008112448343484124 0.13017327160046516 0.30571364394330236
v 0.1559643379028477 4.364097429380067 -0.15491885048579523
v 0.1563449550497502 4.3749968784025866 0.15739078295767261
vt 0 0.9609375
vt 0.0390625 0.9609375
vt 0.0390625 0.4296875
vt 0 0.4296875
vt 0.1171875 0.9609375
vt 0.15625 0.9609375
vt 0.15625 0.4296875
vt 0.1171875 0.4296875
vn -0.9993908270190959 0.034899496702500976 1.220811646218678e-16
vn 0.0012179748700880046 0.03487823687206282 0.9993908270190958
usemtl m_6bbea4dc-b2c1-952e-8226-45e26a80f6bc
f 67/148/37 68/147/37 66/146/37 65/145/37
f 72/152/38 67/151/38 65/150/38 70/149/38
o post1c
v -0.008112448343483403 0.13017327160046366 0.30571364394330214
v -0.0077318311965809405 0.11927382257794401 -0.006595989500165156
v -0.15634495504974966 4.374996878402589 0.15739078295767228
v -0.1559643379028472 4.364097429380069 -0.1549188504857949
v 0.3045778022468869 0.1301799152974756 -0.006595989500165156
v 0.3041971850999845 0.14107936431999524 0.305713643943302
v 0.1563452955406207 4.3750035220996 -0.154918850485795
v 0.1559646783937183 4.38590297112212 0.15739078295767228
vt 0.1171875 0.9609375
vt 0.15625 0.9609375
vt 0.15625 0.4296875
vt 0.1171875 0.4296875
vt 0.078125 0.9609375
vt 0.1171875 0.9609375
vt 0.1171875 0.4296875
vt 0.078125 0.4296875
vn -0.0012179748700877596 0.034878236872062825 0.9993908270190958
vn 0.9993908270190959 0.034899496702500976 -1.227316859253591e-16
usemtl m_6bbea4dc-b2c1-952e-8226-45e26a80f6bc
f 80/156/39 75/155/39 73/154/39 78/153/39
f 79/160/40 80/159/40 78/158/40 77/157/40
o post1d
v -0.3045778011617964 0.13017994637036026 0.009067941652924016
v -0.30419718401489393 0.1410793953928799 -0.30324169179054283
v -0.15634529445553003 4.375003553172489 0.15739080263855387
v -0.15596467730862762 4.3859030021950085 -0.15491883080491292
v 0.008112449428573032 0.13017330267334837 -0.3032416917905429
v 0.007731832281670625 0.11927385365082874 0.009067941652923905
v 0.15634495613483945 4.374996909475477 -0.15491883080491298
v 0.15596433898793705 4.364097460452957 0.15739080263855387
vt 0.0390625 0.9609375
vt 0.078125 0.9609375
vt 0.078125 0.4296875
vt 0.0390625 0.4296875
vt 0 0.9609375
vt 0.0390625 0.9609375
vt 0.0390625 0.4296875
vt 0 0.4296875
vn 0.0012179748700877596 0.034878236872062825 -0.9993908270190958
vn -0.9993908270190959 0.034899496702500976 1.227316859253591e-16
usemtl m_6bbea4dc-b2c1-952e-8226-45e26a80f6bc
f 84/164/41 87/163/41 85/162/41 82/161/41
f 83/168/42 84/167/42 82/166/42 81/165/42
o port_side_led
v 0.25 0.75 -0.5
v 0.25 0.75 -0.5
v 0.25 0.25 -0.5
v 0.25 0.25 -0.5
v -0.25 0.75 -0.5
v -0.25 0.75 -0.5
v -0.25 0.25 -0.5
v -0.25 0.25 -0.5
vt 0.5 0.5
vt 1 0.5
vt 1 0
vt 0.5 0
vn 0 0 -1
usemtl m_0f0a58fd-1b44-f0e5-bdfa-41fdbd9364da
f 92/172/43 95/171/43 93/170/43 90/169/43
o port_side
v 0.25 0.75 -0.4375
v 0.25 0.75 -0.5
v 0.25 0.25 -0.4375
v 0.25 0.25 -0.5
v -0.25 0.75 -0.5
v -0.25 0.75 -0.4375
v -0.25 0.25 -0.5
v -0.25 0.25 -0.4375
vt 0 1
vt 0.5 1
vt 0.5 0.5
vt 0 0.5
vt 0 1
vt 0.0625 1
vt 0.0625 0.5
vt 0 0.5
vt 0.5 1
vt 1 1
vt 1 0.5
vt 0.5 0.5
vt 0.4375 1
vt 0.5 1
vt 0.5 0.5
vt 0.4375 0.5
vt 0 1
vt 0.5 1
vt 0.5 0.9375
vt 0 0.9375
vt 0 0.5625
vt 0.5 0.5625
vt 0.5 0.5
vt 0 0.5
vn 0 0 -1
vn 1 0 0
vn 0 0 1
vn -1 0 0
vn 0 1 0
vn 0 -1 0
usemtl m_6e0c5229-7be1-fa3c-5b4e-9e09f6e4d080
f 100/176/44 103/175/44 101/174/44 98/173/44
f 99/180/45 100/179/45 98/178/45 97/177/45
f 104/184/46 99/183/46 97/182/46 102/181/46
f 103/188/47 104/187/47 102/186/47 101/185/47
f 102/192/48 97/191/48 98/190/48 101/189/48
f 103/196/49 100/195/49 99/194/49 104/193/49
o port_bottom_led
v 0.25 0 0.2512375
v 0.25 0 -0.2487625
v 0.25 0 0.2512375
v 0.25 0 -0.2487625
v -0.25 0 -0.2487625
v -0.25 0 0.2512375
v -0.25 0 -0.2487625
v -0.25 0 0.2512375
vt 1 0.5
vt 0.5 0.5
vt 0.5 0
vt 1 0
vn 0 -1 0
usemtl m_0f0a58fd-1b44-f0e5-bdfa-41fdbd9364da
f 111/200/50 108/199/50 107/198/50 112/197/50
o base
v -0.5 -2.284013395050213e-18 0.5012362499999998
v -0.5000000000000001 -1.2474869330978553e-16 -0.49876375000000006
v -0.5 0.125 0.5012362499999998
v -0.5000000000000001 0.12499999999999988 -0.49876375000000006
v 0.4999999999999999 -1.2474869330978553e-16 -0.49876375000000017
v 0.5 -2.284013395050213e-18 0.5012362499999996
v 0.4999999999999999 0.12499999999999988 -0.49876375000000017
v 0.5 0.125 0.5012362499999996
vt 0.203125 0.375
vt 0.328125 0.375
vt 0.328125 0.359375
vt 0.203125 0.359375
vt 0.078125 0.375
vt 0.203125 0.375
vt 0.203125 0.359375
vt 0.078125 0.359375
vt 0.453125 0.375
vt 0.578125 0.375
vt 0.578125 0.359375
vt 0.453125 0.359375
vt 0.328125 0.375
vt 0.453125 0.375
vt 0.453125 0.359375
vt 0.328125 0.359375
vt 0.453125 0.375
vt 0.328125 0.375
vt 0.328125 0.5
vt 0.453125 0.5
vt 0.328125 0.5
vt 0.203125 0.5
vt 0.203125 0.375
vt 0.328125 0.375
vn -1.2246467991473532e-16 -1.2246467991473532e-16 -1
vn -1 0 1.2246467991473532e-16
vn 1.2246467991473532e-16 1.2246467991473532e-16 1
vn 1 0 -1.2246467991473532e-16
vn 1.4997597826618576e-32 -1 1.2246467991473532e-16
vn -1.4997597826618576e-32 1 -1.2246467991473532e-16
usemtl m_6bbea4dc-b2c1-952e-8226-45e26a80f6bc
f 116/204/51 119/203/51 117/202/51 114/201/51
f 115/208/52 116/207/52 114/206/52 113/205/52
f 120/212/53 115/211/53 113/210/53 118/209/53
f 119/216/54 120/215/54 118/214/54 117/213/54
f 118/220/55 113/219/55 114/218/55 117/217/55
f 119/224/56 116/223/56 115/222/56 120/221/56