# Made in Blockbench 5.2.1
mtllib mekasuit_modules.mtl

o override_solar_helmet_helmet_head_center1
v 0.06250000000000003 1.9375 -0.18749999999999997
v 0.06250000000000003 1.9110863586412064 -0.2441442366897906
v 0.06250000000000003 1.8808557633102094 -0.16108635864120627
v 0.06250000000000003 1.8544421219514158 -0.2177305953309969
v -0.06249999999999997 1.9110863586412064 -0.2441442366897906
v -0.06249999999999997 1.9375 -0.18749999999999997
v -0.06249999999999997 1.8544421219514158 -0.2177305953309969
v -0.06249999999999997 1.8808557633102094 -0.16108635864120627
vt 0.15625 0.78125
vt 0.1875 0.78125
vt 0.1875 0.75
vt 0.15625 0.75
vt 0.15625 0.8125
vt 0.1875 0.8125
vt 0.1875 0.78125
vt 0.15625 0.78125
vt 0.09375 0.65625
vt 0.15625 0.65625
vt 0.15625 0.625
vt 0.09375 0.625
vn 1 0 0
vn -1 0 0
vn 0 0.9063077870366499 -0.42261826174069944
usemtl helmet
f 3/4/1 4/3/1 2/2/1 1/1/1
f 7/8/2 8/7/2 6/6/2 5/5/2
f 6/12/3 1/11/3 2/10/3 5/9/3
o override_solar_helmet_helmet_head_center2
v 0.06218750000000001 1.9375 0.125
v 0.06218750000000001 1.9375 -0.1875
v 0.06218750000000001 1.875 0.125
v 0.06218750000000001 1.875 -0.1875
v -0.0628125 1.9375 -0.1875
v -0.0628125 1.9375 0.125
v -0.0628125 1.875 -0.1875
v -0.0628125 1.875 0.125
vt 0.09375 0.75
vt 0.25 0.75
vt 0.25 0.71875
vt 0.09375 0.71875
vt 0.09375 0.75
vt 0.25 0.75
vt 0.25 0.71875
vt 0.09375 0.71875
vt 0.09375 0.8125
vt 0.15625 0.8125
vt 0.15625 0.65625
vt 0.09375 0.65625
vn 1 0 0
vn -1 0 0
vn 0 1 0
usemtl helmet
f 11/16/4 12/15/4 10/14/4 9/13/4
f 15/20/5 16/19/5 14/18/5 13/17/5
f 14/24/6 9/23/6 10/22/6 13/21/6
o override_solar_helmet_helmet_head_center3
v 0.0625 1.847879290880593 0.25299163709169586
v 0.0625 1.9375006090604439 0.12499913017154088
v 0.0625 1.7966822881125308 0.2171431098197555
v 0.0625 1.886303606292382 0.0891506028996005
v -0.0625 1.9375006090604439 0.12499913017154088
v -0.0625 1.847879290880593 0.25299163709169586
v -0.0625 1.886303606292382 0.0891506028996005
v -0.0625 1.7966822881125308 0.2171431098197555
vt 0.15625 0.8125
vt 0.1875 0.8125
vt 0.1875 0.78125
vt 0.15625 0.78125
vt 0.59375 0.59375
vt 0.78125 0.59375
vt 0.78125 0.53125
vt 0.59375 0.53125
vt 0.15625 0.78125
vt 0.1875 0.78125
vt 0.1875 0.75
vt 0.15625 0.75
vt 0.25 0.8125
vt 0.1875 0.8125
vt 0.1875 0.90625
vt 0.25 0.90625
vn 1 0 0
vn 0 -0.573576436351046 0.8191520442889918
vn -1 0 0
vn 0 0.8191520442889918 0.573576436351046
usemtl helmet
f 19/28/7 20/27/7 18/26/7 17/25/7
f 24/32/8 19/31/8 17/30/8 22/29/8
f 23/36/9 24/35/9 22/34/9 21/33/9
f 22/40/10 17/39/10 18/38/10 21/37/10
o override_solar_helmet_helmet_head_center4
v -0.0625 1.90625 0.1875
v -0.0625 1.90625 -0.25
v -0.0625 1.84375 0.1875
v -0.0625 1.84375 -0.25
v -0.1875 1.90625 -0.25
v -0.1875 1.90625 0.1875
v -0.1875 1.84375 -0.25
v -0.1875 1.84375 0.1875
vt 0.0625 0.84375
vt 0.28125 0.84375
vt 0.28125 0.8125
vt 0.0625 0.8125
vt 0.0625 0.75
vt 0.28125 0.75
vt 0.28125 0.71875
vt 0.0625 0.71875
vt 0.28125 0.84375
vt 0.21875 0.84375
vt 0.21875 0.625
vt 0.28125 0.625
vn 1 0 0
vn -1 0 0
vn 0 1 0
usemtl helmet
f 27/44/11 28/43/11 26/42/11 25/41/11
f 31/48/12 32/47/12 30/46/12 29/45/12
f 30/52/13 25/51/13 26/50/13 29/49/13
o solar_helmet_head_center_front
v 0.0625 1.9110863586412064 -0.24414423668979063
v 0.0625 1.8632085809462702 -0.2843184622951993
v 0.0625 1.8709121330357976 -0.19626645899485448
v 0.0625 1.8230343553408614 -0.23644068460026318
v -0.0625 1.8632085809462702 -0.2843184622951993
v -0.0625 1.9110863586412064 -0.24414423668979063
v -0.0625 1.8230343553408614 -0.23644068460026318
v -0.0625 1.8709121330357976 -0.19626645899485448
vt 0.65625 0.5625
vt 0.71875 0.5625
vt 0.71875 0.53125
vt 0.65625 0.53125
vt 0 0.8125
vt 0.1875 0.8125
vt 0.1875 0.75
vt 0 0.75
vt 0 0.8125
vt 0.1875 0.8125
vt 0.1875 0.75
vt 0 0.75
vt 0.09375 0.59375
vt 0.15625 0.59375
vt 0.15625 0.5625
vt 0.09375 0.5625
vn 0 -0.766044443118978 -0.6427876096865393
vn 1 0 0
vn -1 0 0
vn 0 0.6427876096865393 -0.766044443118978
usemtl helmet
f 36/56/14 39/55/14 37/54/14 34/53/14
f 35/60/15 36/59/15 34/58/15 33/57/15
f 39/64/16 40/63/16 38/62/16 37/61/16
f 38/68/17 33/67/17 34/66/17 37/65/17
o override_solar_helmet_helmet_head_rail1
v -0.1875 1.9375 0.21875
v -0.1875 1.9375 -0.21875
v -0.1875 1.875 0.21875
v -0.1875 1.875 -0.21875
v -0.250625 1.9375 -0.21875
v -0.250625 1.9375 0.21875
v -0.250625 1.875 -0.21875
v -0.250625 1.875 0.21875
vt 0.59375 0.96875
vt 0.625 0.96875
vt 0.625 0.9375
vt 0.59375 0.9375
vt 0.5625 0.96875
vt 0.78125 0.96875
vt 0.78125 0.9375
vt 0.5625 0.9375
vt 0.78125 0.96875
vt 0.8125 0.96875
vt 0.8125 0.9375
vt 0.78125 0.9375
vt 0.59375 0.96875
vt 0.8125 0.96875
vt 0.8125 0.9375
vt 0.59375 0.9375
vt 0.59375 0.9375
vt 0.59375 0.96875
vt 0.8125 0.96875
vt 0.8125 0.9375
vt 0.5625 0.9375
vt 0.5625 0.96875
vt 0.78125 0.96875
vt 0.78125 0.9375
vn 0 0 -1
vn 1 0 0
vn 0 0 1
vn -1 0 0
vn 0 1 0
vn 0 -1 0
usemtl helmet
f 44/72/18 47/71/18 45/70/18 42/69/18
f 43/76/19 44/75/19 42/74/19 41/73/19
f 48/80/20 43/79/20 41/78/20 46/77/20
f 47/84/21 48/83/21 46/82/21 45/81/21
f 46/88/22 41/87/22 42/86/22 45/85/22
f 47/92/23 44/91/23 43/90/23 48/89/23
o override_solar_helmet_helmet_head_rail2
v 0.250625 1.9375 0.21875
v 0.250625 1.9375 -0.21875
v 0.250625 1.875 0.21875
v 0.250625 1.875 -0.21875
v 0.1875 1.9375 -0.21875
v 0.1875 1.9375 0.21875
v 0.1875 1.875 -0.21875
v 0.1875 1.875 0.21875
vt 0.59375 0.96875
vt 0.625 0.96875
vt 0.625 0.9375
vt 0.59375 0.9375
vt 0.5625 0.96875
vt 0.78125 0.96875
vt 0.78125 0.9375
vt 0.5625 0.9375
vt 0.78125 0.96875
vt 0.8125 0.96875
vt 0.8125 0.9375
vt 0.78125 0.9375
vt 0.59375 0.96875
vt 0.8125 0.96875
vt 0.8125 0.9375
vt 0.59375 0.9375
vt 0.59375 0.9375
vt 0.59375 0.96875
vt 0.8125 0.96875
vt 0.8125 0.9375
vt 0.5625 0.9375
vt 0.5625 0.96875
vt 0.78125 0.96875
vt 0.78125 0.9375
vn 0 0 -1
vn 1 0 0
vn 0 0 1
vn -1 0 0
vn 0 1 0
vn 0 -1 0
usemtl helmet
f 52/96/24 55/95/24 53/94/24 50/93/24
f 51/100/25 52/99/25 50/98/25 49/97/25
f 56/104/26 51/103/26 49/102/26 54/101/26
f 55/108/27 56/107/27 54/106/27 53/105/27
f 54/112/28 49/111/28 50/110/28 53/109/28
f 55/116/29 52/115/29 51/114/29 56/113/29
o override_solar_helmet_helmet_head_rail3
v 0.125 1.65625 0.21875
v 0.125 1.65625 0.15625
v 0.125 1.59375 0.21875
v 0.125 1.59375 0.15625
v 0.0625 1.65625 0.15625
v 0.0625 1.65625 0.21875
v 0.0625 1.59375 0.15625
v 0.0625 1.59375 0.21875
vt 0.59375 0.5
vt 0.78125 0.5
vt 0.78125 0.4375
vt 0.59375 0.4375
vt 0.59375 0.5
vt 0.78125 0.5
vt 0.78125 0.4375
vt 0.59375 0.4375
vt 0.59375 0.5
vt 0.78125 0.5
vt 0.78125 0.4375
vt 0.59375 0.4375
vt 0.59375 0.5
vt 0.78125 0.5
vt 0.78125 0.4375
vt 0.59375 0.4375
vn 1 0 0
vn 0 0 1
vn -1 0 0
vn 0 -1 0
usemtl helmet
f 59/120/30 60/119/30 58/118/30 57/117/30
f 64/124/31 59/123/31 57/122/31 62/121/31
f 63/128/32 64/127/32 62/126/32 61/125/32
f 63/132/33 60/131/33 59/130/33 64/129/33
o override_solar_helmet_helmet_head_rail4
v -0.0625 1.65625 0.21875
v -0.0625 1.65625 0.15625
v -0.0625 1.59375 0.21875
v -0.0625 1.59375 0.15625
v -0.125 1.65625 0.15625
v -0.125 1.65625 0.21875
v -0.125 1.59375 0.15625
v -0.125 1.59375 0.21875
vt 0.59375 0.5
vt 0.78125 0.5
vt 0.78125 0.4375
vt 0.59375 0.4375
vt 0.59375 0.5
vt 0.78125 0.5
vt 0.78125 0.4375
vt 0.59375 0.4375
vt 0.59375 0.5
vt 0.78125 0.5
vt 0.78125 0.4375
vt 0.59375 0.4375
vt 0.59375 0.5
vt 0.78125 0.5
vt 0.78125 0.4375
vt 0.59375 0.4375
vn 1 0 0
vn 0 0 1
vn -1 0 0
vn 0 -1 0
usemtl helmet
f 67/136/34 68/135/34 66/134/34 65/133/34
f 72/140/35 67/139/35 65/138/35 70/137/35
f 71/144/36 72/143/36 70/142/36 69/141/36
f 71/148/37 68/147/37 67/146/37 72/145/37
o solar_helmet_head_rail1b
v -0.1875 1.875 0.21875
v -0.1875 1.875 0.15625
v -0.1875 1.6875 0.21875
v -0.1875 1.6875 0.15625
v -0.250625 1.875 0.15625
v -0.250625 1.875 0.21875
v -0.250625 1.6875 0.15625
v -0.250625 1.6875 0.21875
vt 0.59375 0.6875
vt 0.625 0.6875
vt 0.625 0.59375
vt 0.59375 0.59375
vt 0.59375 0.6875
vt 0.625 0.6875
vt 0.625 0.59375
vt 0.59375 0.59375
vt 0.59375 0.6875
vt 0.625 0.6875
vt 0.625 0.59375
vt 0.59375 0.59375
vt 0.59375 0.625
vt 0.625 0.625
vt 0.625 0.59375
vt 0.59375 0.59375
vn 0 0 -1
vn 0 0 1
vn -1 0 0
vn 0 -1 0
usemtl helmet
f 76/152/38 79/151/38 77/150/38 74/149/38
f 80/156/39 75/155/39 73/154/39 78/153/39
f 79/160/40 80/159/40 78/158/40 77/157/40
f 79/164/41 76/163/41 75/162/41 80/161/41
o solar_helmet_head_rail2b
v 0.250625 1.875 0.21875
v 0.250625 1.875 0.15625
v 0.250625 1.6875 0.21875
v 0.250625 1.6875 0.15625
v 0.1875 1.875 0.15625
v 0.1875 1.875 0.21875
v 0.1875 1.6875 0.15625
v 0.1875 1.6875 0.21875
vt 0.59375 0.6875
vt 0.625 0.6875
vt 0.625 0.59375
vt 0.59375 0.59375
vt 0.59375 0.6875
vt 0.625 0.6875
vt 0.625 0.59375
vt 0.59375 0.59375
vt 0.59375 0.6875
vt 0.625 0.6875
vt 0.625 0.59375
vt 0.59375 0.59375
vt 0.59375 0.625
vt 0.625 0.625
vt 0.625 0.59375
vt 0.59375 0.59375
vn 0 0 -1
vn 1 0 0
vn 0 0 1
vn 0 -1 0
usemtl helmet
f 84/168/42 87/167/42 85/166/42 82/165/42
f 83/172/43 84/171/43 82/170/43 81/169/43
f 88/176/44 83/175/44 81/174/44 86/173/44
f 87/180/45 84/179/45 83/178/45 88/177/45
o override_solar_helmet_helmet_head_top
v 0.1875 1.90625 0.1875
v 0.1875 1.90625 -0.25
v 0.1875 1.84375 0.1875
v 0.1875 1.84375 -0.25
v 0.0625 1.90625 -0.25
v 0.0625 1.90625 0.1875
v 0.0625 1.84375 -0.25
v 0.0625 1.84375 0.1875
vt 0.0625 0.84375
vt 0.28125 0.84375
vt 0.28125 0.8125
vt 0.0625 0.8125
vt 0.0625 0.84375
vt 0.28125 0.84375
vt 0.28125 0.8125
vt 0.0625 0.8125
vt 0.125 0.84375
vt 0.0625 0.84375
vt 0.0625 0.625
vt 0.125 0.625
vn 1 0 0
vn -1 0 0
vn 0 1 0
usemtl helmet
f 91/184/46 92/183/46 90/182/46 89/181/46
f 95/188/47 96/187/47 94/186/47 93/185/47
f 94/192/48 89/191/48 90/190/48 93/189/48
o override_solar_helmet_helmet_head_visor_left
v -0.0628125 1.90625 -0.25
v -0.0628125 1.8798363586412064 -0.30664423668979063
v -0.0628125 1.8496057633102094 -0.2235863586412063
v -0.0628125 1.8231921219514158 -0.2802305953309969
v -0.1878125 1.8798363586412064 -0.30664423668979063
v -0.1878125 1.90625 -0.25
v -0.1878125 1.8231921219514158 -0.2802305953309969
v -0.1878125 1.8496057633102094 -0.2235863586412063
vt 0.3125 0.3125
vt 0.375 0.3125
vt 0.375 0.28125
vt 0.3125 0.28125
vt 0.15625 0.75
vt 0.21875 0.75
vt 0.21875 0.71875
vt 0.15625 0.71875
vt 0.15625 0.75
vt 0.1875 0.75
vt 0.1875 0.71875
vt 0.15625 0.71875
vt 0.28125 0.59375
vt 0.21875 0.59375
vt 0.21875 0.625
vt 0.28125 0.625
vt 0.8125 0.84375
vt 1 0.84375
vt 1 0.78125
vt 0.8125 0.78125
vn 0 -0.42261826174069944 -0.9063077870366499
vn 1 0 0
vn -1 0 0
vn 0 0.9063077870366499 -0.42261826174069944
vn 0 -0.9063077870366499 0.42261826174069944
usemtl helmet
f 100/196/49 103/195/49 101/194/49 98/193/49
f 99/200/50 100/199/50 98/198/50 97/197/50
f 103/204/51 104/203/51 102/202/51 101/201/51
f 102/208/52 97/207/52 98/206/52 101/205/52
f 103/212/53 100/211/53 99/210/53 104/209/53
o override_solar_helmet_helmet_head_visor_right
v 0.1878125 1.90625 -0.25
v 0.1878125 1.8798363586412064 -0.30664423668979063
v 0.1878125 1.8496057633102094 -0.2235863586412063
v 0.1878125 1.8231921219514158 -0.2802305953309969
v 0.0628125 1.8798363586412064 -0.30664423668979063
v 0.0628125 1.90625 -0.25
v 0.0628125 1.8231921219514158 -0.2802305953309969
v 0.0628125 1.8496057633102094 -0.2235863586412063
vt 0.25 0.3125
vt 0.3125 0.3125
vt 0.3125 0.28125
vt 0.25 0.28125
vt 0.15625 0.84375
vt 0.1875 0.84375
vt 0.1875 0.8125
vt 0.15625 0.8125
vt 0.09375 0.75
vt 0.15625 0.75
vt 0.15625 0.71875
vt 0.09375 0.71875
vt 0.0625 0.625
vt 0.125 0.625
vt 0.125 0.59375
vt 0.0625 0.59375
vt 0.8125 0.84375
vt 1 0.84375
vt 1 0.78125
vt 0.8125 0.78125
vn 0 -0.42261826174069944 -0.9063077870366499
vn 1 0 0
vn -1 0 0
vn 0 0.9063077870366499 -0.42261826174069944
vn 0 -0.9063077870366499 0.42261826174069944
usemtl helmet
f 108/216/54 111/215/54 109/214/54 106/213/54
f 107/220/55 108/219/55 106/218/55 105/217/55
f 111/224/56 112/223/56 110/222/56 109/221/56
f 110/228/57 105/227/57 106/226/57 109/225/57
f 111/232/58 108/231/58 107/230/58 112/229/58
o solar_helmet_head_visor_left_back
v -0.0628125 1.8345529454561191 0.289894005536124
v -0.0628125 1.90625 0.18749999999999997
v -0.0628125 1.7833559426880572 0.25404547826418356
v -0.0628125 1.855052997231938 0.1516514727280596
v -0.1878125 1.90625 0.18749999999999997
v -0.1878125 1.8345529454561191 0.289894005536124
v -0.1878125 1.855052997231938 0.1516514727280596
v -0.1878125 1.7833559426880572 0.25404547826418356
vt 0.09375 0.8125
vt 0.15625 0.8125
vt 0.15625 0.78125
vt 0.09375 0.78125
vt 0.25 0.3125
vt 0.3125 0.3125
vt 0.3125 0.28125
vt 0.25 0.28125
vt 0.1875 0.75
vt 0.25 0.75
vt 0.25 0.71875
vt 0.1875 0.71875
vt 0.28125 0.84375
vt 0.21875 0.84375
vt 0.21875 0.90625
vt 0.28125 0.90625
vt 0.8125 0.84375
vt 1 0.84375
vt 1 0.78125
vt 0.8125 0.78125
vn 1 0 0
vn 0 -0.573576436351046 0.8191520442889918
vn -1 0 0
vn 0 0.8191520442889918 0.573576436351046
vn 0 -0.8191520442889918 -0.573576436351046
usemtl helmet
f 115/236/59 116/235/59 114/234/59 113/233/59
f 120/240/60 115/239/60 113/238/60 118/237/60
f 119/244/61 120/243/61 118/242/61 117/241/61
f 118/248/62 113/247/62 114/246/62 117/245/62
f 119/252/63 116/251/63 115/250/63 120/249/63
o solar_helmet_head_visor_right_back
v 0.1878125 1.8345529454561191 0.289894005536124
v 0.1878125 1.90625 0.18749999999999997
v 0.1878125 1.7833559426880572 0.25404547826418356
v 0.1878125 1.855052997231938 0.1516514727280596
v 0.0628125 1.90625 0.18749999999999997
v 0.0628125 1.8345529454561191 0.289894005536124
v 0.0628125 1.855052997231938 0.1516514727280596
v 0.0628125 1.7833559426880572 0.25404547826418356
vt 0.1875 0.75
vt 0.25 0.75
vt 0.25 0.71875
vt 0.1875 0.71875
vt 0.3125 0.3125
vt 0.375 0.3125
vt 0.375 0.28125
vt 0.3125 0.28125
vt 0.1875 0.84375
vt 0.25 0.84375
vt 0.25 0.8125
vt 0.1875 0.8125
vt 0.125 0.90625
vt 0.0625 0.90625
vt 0.0625 0.84375
vt 0.125 0.84375
vt 0.8125 0.84375
vt 1 0.84375
vt 1 0.78125
vt 0.8125 0.78125
vn 1 0 0
vn 0 -0.573576436351046 0.8191520442889918
vn -1 0 0
vn 0 0.8191520442889918 0.573576436351046
vn 0 -0.8191520442889918 -0.573576436351046
usemtl helmet
f 123/256/64 124/255/64 122/254/64 121/253/64
f 128/260/65 123/259/65 121/258/65 126/257/65
f 127/264/66 128/263/66 126/262/66 125/261/66
f 126/268/67 121/267/67 122/266/67 125/265/67
f 127/272/68 124/271/68 123/270/68 128/269/68