# Blender v2.69 (sub 0) OBJ File: 'glow_panel.blend'
# www.blender.org
g light
v 0.187500 -0.510000 -0.187500
v 0.187500 -0.510000 0.187500
v -0.187500 -0.510000 0.187500
v -0.187500 -0.510000 -0.187500
v 0.187500 -0.350000 -0.187500
v 0.187500 -0.350000 0.187500
v -0.187500 -0.350000 0.187500
v -0.187500 -0.350000 -0.187500
vt 0.312500 0.312500
vt 0.687500 0.312500
vt 0.687500 0.687500
vt 0.312500 0.687500
vt 0.687500 0.593750
vt 0.312500 0.593750
vt 0.593750 0.687500
vt 0.593750 0.312500
vt 0.687500 0.406250
vt 0.312500 0.406250
vt 0.406250 0.312500
vt 0.406250 0.687500
vn 0.000000 -1.000000 0.000000
vn 0.000000 1.000000 -0.000000
vn 1.000000 0.000000 0.000001
vn -0.000001 -0.000001 1.000000
vn -1.000000 -0.000001 -0.000001
vn 0.000001 0.000001 -1.000000
s off
f 1/1/1 2/2/1 3/3/1 4/4/1
f 5/1/2 8/2/2 7/3/2 6/4/2
f 1/5/3 5/3/3 6/4/3 2/6/3
f 2/3/4 6/7/4 7/8/4 3/2/4
f 3/2/5 7/9/5 8/10/5 4/1/5
f 5/1/6 1/11/6 4/12/6 8/4/6
g frame
v 0.250000 -0.500000 -0.250000
v 0.250000 -0.500000 0.250000
v -0.250000 -0.500000 0.250000
v -0.250000 -0.500000 -0.250000
v 0.250000 -0.375000 -0.250000
v 0.250000 -0.375000 0.250000
v -0.250000 -0.375000 0.250000
v -0.250000 -0.375000 -0.250000
vt 0.250000 0.250000
vt 0.750000 0.250000
vt 0.750000 0.750000
vt 0.250000 0.750000
vt 0.750000 0.687500
vt 0.250000 0.687500
vt 0.687500 0.250000
vt 0.687500 0.750000
vt 0.250000 0.312500
vt 0.750000 0.312500
vt 0.312500 0.250000
vt 0.312500 0.750000
vn 0.000000 -1.000000 0.000000
vn 0.000000 1.000000 0.000000
vn 1.000000 0.000001 0.000001
vn -0.000001 -0.000001 1.000000
vn -1.000000 -0.000001 -0.000001
vn 0.000000 0.000001 -1.000000
s off
f 9/13/7 10/14/7 11/15/7 12/16/7
f 13/13/8 16/14/8 15/15/8 14/16/8
f 9/17/9 13/15/9 14/16/9 10/18/9
f 10/19/10 14/14/10 15/15/10 11/20/10
f 11/21/11 15/13/11 16/14/11 12/22/11
f 13/13/12 9/23/12 12/24/12 16/16/12
