# Blender v2.66 (sub 1) OBJ File: 'wireShine.blend'
# www.blender.org
mtllib wireShine.mtl
g down
v -0.126250 0.000000 0.126250
v 0.126250 0.000000 0.126250
v 0.126250 0.374464 0.126250
v -0.126250 0.374464 0.126250
v -0.126250 0.000000 -0.126250
v 0.126250 0.000000 -0.126250
v 0.126250 0.374464 -0.126250
v -0.126250 0.374464 -0.126250
v 0.126250 0.187232 -0.126250
v -0.126250 0.000000 -0.000000
v -0.000000 0.187232 0.126250
v -0.126250 0.187232 0.126250
v -0.000000 0.000000 0.126250
v -0.126250 0.187232 -0.126250
v -0.000000 0.374464 0.126250
v 0.126250 0.000000 -0.000000
v 0.126250 0.187232 0.126250
v -0.126250 0.374464 -0.000000
v -0.000000 0.000000 -0.126250
v 0.126250 0.374464 -0.000000
v -0.126250 0.187232 -0.000000
v 0.126250 0.187232 -0.000000
v -0.000000 0.187232 -0.126250
v -0.000000 0.374464 -0.126250
vt 0.218750 0.468750
vt 0.218750 0.375000
vt 0.281250 0.375000
vt 0.281250 0.468750
vt 0.343750 0.468750
vt 0.343750 0.562500
vt 0.281250 0.562500
vt 0.093750 0.468750
vt 0.031250 0.468750
vt 0.031250 0.375000
vt 0.093750 0.375000
vt 0.406250 0.468750
vt 0.406250 0.562500
vt 0.531250 0.468750
vt 0.468750 0.468750
vt 0.468750 0.375000
vt 0.531250 0.375000
vt 0.218750 0.562500
vt 0.343750 0.375000
vt 0.406250 0.375000
vt 0.468750 0.562500
vt 0.156250 0.468750
vt 0.156250 0.375000
vt 0.531250 0.562500
vt 0.156250 0.562500
vt 0.093750 0.562500
vt 0.031250 0.562500
vn -0.000000 -0.000000 1.000000
vn 1.000000 -0.000000 0.000000
vn 0.000000 0.000000 -1.000000
vn -1.000000 0.000000 -0.000000
usemtl None
s off
f 11/1/1 15/2/1 4/3/1 12/4/1
f 9/4/2 22/5/2 16/6/2 6/7/2
f 23/8/3 14/9/3 8/10/3 24/11/3
f 22/5/2 17/12/2 2/13/2 16/6/2
f 12/14/4 21/15/4 10/16/4 1/17/4
f 13/18/1 11/1/1 12/4/1 1/7/1
f 20/19/2 3/20/2 17/12/2 22/5/2
f 18/21/4 8/13/4 14/12/4 21/15/4
f 17/22/1 3/23/1 15/2/1 11/1/1
f 4/24/4 18/21/4 21/15/4 12/14/4
f 21/15/4 14/12/4 5/20/4 10/16/4
f 6/25/3 19/26/3 23/8/3 9/22/3
f 9/22/3 23/8/3 24/11/3 7/23/3
f 2/25/1 17/22/1 11/1/1 13/18/1
f 19/26/3 5/27/3 14/9/3 23/8/3
f 7/3/2 20/19/2 22/5/2 9/4/2
g up
v -0.126250 1.000000 -0.126250
v 0.126250 1.000000 -0.126250
v 0.126250 0.626964 -0.126250
v -0.126250 0.626964 -0.126250
v -0.126250 1.000000 0.126250
v 0.126250 1.000000 0.126250
v 0.126250 0.626964 0.126250
v -0.126250 0.626964 0.126250
v -0.126250 0.813482 -0.126250
v -0.126250 1.000000 -0.000000
v -0.126250 0.813482 0.126250
v 0.000000 0.626964 -0.126250
v -0.000000 1.000000 -0.126250
v -0.126250 0.626964 -0.000000
v -0.000000 0.626964 0.126250
v 0.126250 0.813482 -0.126250
v 0.126250 0.813482 -0.000000
v -0.126250 0.813482 -0.000000
v 0.126250 1.000000 -0.000000
v 0.126250 0.626964 -0.000000
v 0.126250 0.813482 0.126250
v -0.000000 0.813482 0.126250
v -0.000000 0.813482 -0.126250
v -0.000000 1.000000 0.126250
vt 0.406250 0.468750
vt 0.406250 0.562500
vt 0.343750 0.562500
vt 0.343750 0.468750
vt 0.156250 0.468750
vt 0.156250 0.562500
vt 0.093750 0.562500
vt 0.093750 0.468750
vt 0.406250 0.375000
vt 0.343750 0.375000
vt 0.468750 0.468750
vt 0.468750 0.562500
vt 0.218750 0.468750
vt 0.218750 0.375000
vt 0.281250 0.375000
vt 0.281250 0.468750
vt 0.031250 0.562500
vt 0.031250 0.468750
vt 0.468750 0.375000
vt 0.531250 0.468750
vt 0.531250 0.562500
vt 0.156250 0.375000
vt 0.218750 0.562500
vt 0.281250 0.562500
vt 0.531250 0.375000
vt 0.093750 0.375000
vt 0.031250 0.375000
usemtl None
s off
f 40/28/2 26/29/2 43/30/2 41/31/2
f 45/32/1 30/33/1 48/34/1 46/35/1
f 27/36/2 40/28/2 41/31/2 44/37/2
f 35/28/4 42/38/4 38/39/4 32/29/4
f 47/40/3 36/41/3 28/42/3 33/43/3
f 46/35/1 48/34/1 29/44/1 35/45/1
f 29/36/4 34/46/4 42/38/4 35/28/4
f 42/38/4 33/47/4 28/48/4 38/39/4
f 40/32/3 27/49/3 36/41/3 47/40/3
f 37/50/3 47/40/3 33/43/3 25/51/3
f 44/37/2 41/31/2 45/43/2 31/42/2
f 34/46/4 25/52/4 33/47/4 42/38/4
f 26/33/3 40/32/3 47/40/3 37/50/3
f 39/53/1 46/35/1 35/45/1 32/54/1
f 31/49/1 45/32/1 46/35/1 39/53/1
f 41/31/2 43/30/2 30/51/2 45/43/2
g west
v 0.500000 0.374464 -0.126250
v 0.500000 0.374464 0.126250
v 0.126250 0.374464 0.126250
v 0.126250 0.374464 -0.126250
v 0.500000 0.626964 -0.126250
v 0.500000 0.626964 0.126250
v 0.126250 0.626964 0.126250
v 0.126250 0.626964 -0.126250
v 0.126250 0.626964 0.000000
v 0.313125 0.374464 0.126250
v 0.126250 0.500714 0.126250
v 0.313125 0.374464 0.000000
v 0.313125 0.626964 0.126250
v 0.500000 0.500714 -0.126250
v 0.313125 0.626964 0.000000
v 0.313125 0.500714 -0.126250
v 0.500000 0.374464 0.000000
v 0.500000 0.500714 0.126250
v 0.313125 0.500714 0.126250
v 0.313125 0.626964 -0.126250
v 0.500000 0.626964 0.000000
v 0.313125 0.374464 -0.126250
v 0.126250 0.374464 0.000000
v 0.126250 0.500714 -0.126250
vt 0.406250 0.468750
vt 0.343750 0.468750
vt 0.343750 0.375000
vt 0.406250 0.375000
vt 0.218750 0.562500
vt 0.156250 0.562500
vt 0.156250 0.468750
vt 0.218750 0.468750
vt 0.406250 0.562500
vt 0.343750 0.562500
vt 0.281250 0.468750
vt 0.281250 0.375000
vt 0.281250 0.562500
vt 0.468750 0.375000
vt 0.531250 0.375000
vt 0.531250 0.468750
vt 0.468750 0.468750
vt 0.468750 0.562500
vt 0.093750 0.562500
vt 0.093750 0.468750
vt 0.531250 0.562500
vt 0.093750 0.375000
vt 0.031250 0.468750
vt 0.031250 0.375000
vt 0.031250 0.562500
vt 0.218750 0.375000
vt 0.156250 0.375000
vn 0.000000 -1.000000 0.000000
vn 0.000000 1.000000 -0.000000
usemtl None
s off
f 58/55/1 67/56/1 59/57/1 51/58/1
f 65/59/5 50/60/5 58/61/5 60/62/5
f 50/63/1 66/64/1 67/56/1 58/55/1
f 67/56/1 61/65/1 55/66/1 59/57/1
f 66/64/1 54/67/1 61/65/1 67/56/1
f 62/68/3 49/69/3 70/70/3 64/71/3
f 68/55/3 64/71/3 72/72/3 56/63/3
f 53/58/3 62/68/3 64/71/3 68/55/3
f 61/61/6 54/60/6 69/73/6 63/74/6
f 49/67/5 65/59/5 60/62/5 70/65/5
f 64/71/3 70/70/3 52/75/3 72/72/3
f 57/76/6 63/74/6 68/77/6 56/78/6
f 63/74/6 69/73/6 53/79/6 68/77/6
f 70/65/5 60/62/5 71/80/5 52/66/5
f 60/62/5 58/61/5 51/81/5 71/80/5
f 55/81/6 61/61/6 63/74/6 57/76/6
g east
v -0.500000 0.374460 0.126250
v -0.500000 0.374460 -0.126250
v -0.126250 0.374464 -0.126250
v -0.126250 0.374464 0.126250
v -0.500000 0.626960 0.126250
v -0.500000 0.626960 -0.126250
v -0.126250 0.626964 -0.126250
v -0.126250 0.626964 0.126250
v -0.313125 0.374462 0.126250
v -0.126250 0.500714 -0.126250
v -0.313125 0.626962 0.126250
v -0.313125 0.626962 -0.126250
v -0.500000 0.500710 0.126250
v -0.126250 0.374464 -0.000000
v -0.126250 0.500714 0.126250
v -0.500000 0.374460 -0.000000
v -0.500000 0.500710 -0.126250
v -0.313125 0.626962 -0.000000
v -0.126250 0.626964 -0.000000
v -0.313125 0.374462 -0.000000
v -0.313125 0.500712 0.126250
v -0.313125 0.500712 -0.126250
v -0.313125 0.374462 -0.126250
v -0.500000 0.626960 -0.000000
vt 0.281250 0.562500
vt 0.281250 0.468750
vt 0.343750 0.468750
vt 0.343750 0.562500
vt 0.031250 0.468750
vt 0.093750 0.468750
vt 0.093750 0.562500
vt 0.031250 0.562500
vt 0.218750 0.562500
vt 0.156250 0.562500
vt 0.156250 0.468750
vt 0.218750 0.468750
vt 0.343750 0.375000
vt 0.406250 0.375000
vt 0.406250 0.468750
vt 0.468750 0.468750
vt 0.468750 0.375000
vt 0.531250 0.375000
vt 0.531250 0.468750
vt 0.218750 0.375000
vt 0.281250 0.375000
vt 0.468750 0.562500
vt 0.531250 0.562500
vt 0.156250 0.375000
vt 0.406250 0.562500
vt 0.093750 0.375000
vt 0.031250 0.375000
vn -0.000011 1.000000 -0.000000
vn 0.000011 -1.000000 0.000000
vn 0.000012 -1.000000 0.000000
usemtl None
s off
f 78/82/3 84/83/3 94/84/3 89/85/3
f 83/86/7 90/87/7 96/88/7 77/89/7
f 88/90/8 74/91/8 95/92/8 92/93/8
f 94/84/3 82/94/3 75/95/3 95/96/3
f 93/97/1 85/98/1 73/99/1 81/100/1
f 81/83/9 92/93/9 86/101/9 76/102/9
f 84/83/3 79/102/3 82/94/3 94/84/3
f 87/103/1 93/97/1 81/100/1 76/104/1
f 83/96/1 77/95/1 85/98/1 93/97/1
f 92/93/9 95/92/9 75/105/9 86/101/9
f 80/106/1 83/96/1 93/97/1 87/103/1
f 73/82/8 88/90/8 92/93/8 81/83/8
f 90/87/7 84/92/7 78/91/7 96/88/7
f 91/107/7 79/105/7 84/92/7 90/87/7
f 80/108/7 91/107/7 90/87/7 83/86/7
f 89/85/3 94/84/3 95/96/3 74/106/3
g north
v -0.126250 0.374464 -0.500000
v 0.126250 0.374464 -0.500000
v 0.126250 0.374464 -0.126250
v -0.126250 0.374464 -0.126250
v -0.126250 0.626964 -0.500000
v 0.126250 0.626964 -0.500000
v 0.126250 0.626964 -0.126250
v -0.126250 0.626964 -0.126250
v 0.000000 0.626964 -0.500000
v 0.126250 0.500714 -0.500000
v 0.000000 0.374464 -0.500000
v -0.126250 0.500714 -0.500000
v 0.126250 0.626964 -0.313125
v 0.126250 0.500714 -0.126250
v 0.126250 0.374464 -0.313125
v 0.000000 0.626964 -0.126250
v -0.126250 0.500714 -0.126250
v 0.000000 0.374464 -0.126250
v -0.126250 0.626964 -0.313125
v -0.126250 0.374464 -0.313125
v 0.126250 0.500714 -0.313125
v -0.126250 0.500714 -0.313125
v 0.000000 0.374464 -0.313125
v 0.000000 0.626964 -0.313125
vt 0.343750 0.468750
vt 0.343750 0.375000
vt 0.406250 0.375000
vt 0.406250 0.468750
vt 0.468750 0.468750
vt 0.468750 0.375000
vt 0.531250 0.375000
vt 0.531250 0.468750
vt 0.218750 0.468750
vt 0.156250 0.468750
vt 0.156250 0.375000
vt 0.218750 0.375000
vt 0.093750 0.468750
vt 0.156250 0.562500
vt 0.093750 0.562500
vt 0.343750 0.562500
vt 0.406250 0.562500
vt 0.281250 0.562500
vt 0.281250 0.468750
vt 0.281250 0.375000
vt 0.468750 0.562500
vt 0.531250 0.562500
vt 0.218750 0.562500
vt 0.031250 0.468750
vt 0.031250 0.562500
vt 0.031250 0.375000
vt 0.093750 0.375000
usemtl None
s off
f 117/109/2 110/110/2 99/111/2 111/112/2
f 118/113/4 108/114/4 97/115/4 116/116/4
f 119/117/5 111/118/5 99/119/5 114/120/5
f 120/121/6 109/118/6 102/122/6 105/123/6
f 106/124/2 117/109/2 111/112/2 98/125/2
f 102/126/2 109/127/2 117/109/2 106/124/2
f 109/127/2 103/128/2 110/110/2 117/109/2
f 113/129/4 118/113/4 116/116/4 100/130/4
f 104/125/4 115/112/4 118/113/4 113/129/4
f 115/112/4 101/111/4 108/114/4 118/113/4
f 116/127/5 119/117/5 114/120/5 100/128/5
f 97/126/5 107/131/5 119/117/5 116/127/5
f 107/131/5 98/122/5 111/118/5 119/117/5
f 115/132/6 120/121/6 105/123/6 101/133/6
f 104/134/6 112/135/6 120/121/6 115/132/6
f 112/135/6 103/119/6 109/118/6 120/121/6
g south
v 0.126250 0.374464 0.500000
v -0.126250 0.374464 0.500000
v -0.126250 0.374464 0.126250
v 0.126250 0.374464 0.126250
v 0.126250 0.626964 0.500000
v -0.126250 0.626964 0.500000
v -0.126250 0.626964 0.126250
v 0.126250 0.626964 0.126250
v -0.000000 0.626964 0.500000
v -0.126250 0.500714 0.500000
v -0.000000 0.374464 0.500000
v 0.126250 0.500714 0.500000
v -0.126250 0.626964 0.313125
v -0.126250 0.500714 0.126250
v -0.126250 0.374464 0.313125
v -0.000000 0.626964 0.126250
v 0.126250 0.500714 0.126250
v -0.000000 0.374464 0.126250
v 0.126250 0.626964 0.313125
v 0.126250 0.374464 0.313125
v -0.126250 0.500714 0.313125
v 0.126250 0.500714 0.313125
v -0.000000 0.374464 0.313125
v -0.000000 0.626964 0.313125
vt 0.343750 0.468750
vt 0.343750 0.375000
vt 0.406250 0.375000
vt 0.406250 0.468750
vt 0.468750 0.468750
vt 0.468750 0.375000
vt 0.531250 0.375000
vt 0.531250 0.468750
vt 0.218750 0.468750
vt 0.156250 0.468750
vt 0.156250 0.375000
vt 0.218750 0.375000
vt 0.093750 0.468750
vt 0.156250 0.562500
vt 0.093750 0.562500
vt 0.343750 0.562500
vt 0.406250 0.562500
vt 0.281250 0.562500
vt 0.281250 0.468750
vt 0.281250 0.375000
vt 0.468750 0.562500
vt 0.531250 0.562500
vt 0.218750 0.562500
vt 0.031250 0.468750
vt 0.031250 0.562500
vt 0.031250 0.375000
vt 0.093750 0.375000
usemtl None
s off
f 141/136/4 134/137/4 123/138/4 135/139/4
f 142/140/2 132/141/2 121/142/2 140/143/2
f 143/144/5 135/145/5 123/146/5 138/147/5
f 144/148/6 133/145/6 126/149/6 129/150/6
f 130/151/4 141/136/4 135/139/4 122/152/4
f 126/153/4 133/154/4 141/136/4 130/151/4
f 133/154/4 127/155/4 134/137/4 141/136/4
f 137/156/2 142/140/2 140/143/2 124/157/2
f 128/152/2 139/139/2 142/140/2 137/156/2
f 139/139/2 125/138/2 132/141/2 142/140/2
f 140/154/5 143/144/5 138/147/5 124/155/5
f 121/153/5 131/158/5 143/144/5 140/154/5
f 131/158/5 122/149/5 135/145/5 143/144/5
f 139/159/6 144/148/6 129/150/6 125/160/6
f 128/161/6 136/162/6 144/148/6 139/159/6
f 136/162/6 127/146/6 133/145/6 144/148/6
g center
v -0.126250 0.374464 0.126250
v -0.126250 0.374464 -0.126250
v 0.126250 0.374464 -0.126250
v 0.126250 0.374464 0.126250
v -0.126250 0.626964 0.126250
v -0.126250 0.626964 -0.126250
v 0.126250 0.626964 -0.126250
v 0.126250 0.626964 0.126250
v -0.126250 0.626964 0.000000
v -0.126250 0.500714 -0.126250
v -0.126250 0.374464 0.000000
v -0.126250 0.500714 0.126250
v 0.000000 0.626964 -0.126250
v 0.126250 0.500714 -0.126250
v 0.000000 0.374464 -0.126250
v 0.126250 0.626964 0.000000
v 0.126250 0.500714 0.126250
v 0.126250 0.374464 0.000000
v 0.000000 0.626964 0.126250
v 0.000000 0.374464 0.126250
v -0.126250 0.500714 0.000000
v 0.000000 0.500714 -0.126250
v 0.126250 0.500714 0.000000
v 0.000000 0.500714 0.126250
v 0.000000 0.374464 0.000000
v 0.000000 0.626964 0.000000
vt 0.218750 0.781250
vt 0.156250 0.781250
vt 0.156250 0.718750
vt 0.218750 0.718750
vt 0.468750 0.781250
vt 0.468750 0.718750
vt 0.531250 0.718750
vt 0.531250 0.781250
vt 0.093750 0.781250
vt 0.031250 0.781250
vt 0.031250 0.718750
vt 0.093750 0.718750
vt 0.343750 0.781250
vt 0.343750 0.718750
vt 0.406250 0.718750
vt 0.406250 0.781250
vt 0.343750 0.906250
vt 0.281250 0.906250
vt 0.281250 0.843750
vt 0.343750 0.843750
vt 0.218750 0.906250
vt 0.281250 0.968750
vt 0.218750 0.968750
vt 0.281250 0.781250
vt 0.281250 0.718750
vt 0.218750 0.843750
vt 0.156250 0.843750
vt 0.468750 0.843750
vt 0.531250 0.843750
vt 0.406250 0.843750
vt 0.093750 0.843750
vt 0.031250 0.843750
vt 0.406250 0.906250
vt 0.406250 0.968750
vt 0.343750 0.968750
vt 0.156250 0.906250
vt 0.156250 0.968750
usemtl None_Wire
s off
f 165/163/4 154/164/4 146/165/4 155/166/4
f 166/167/3 158/168/3 147/169/3 159/170/3
f 167/171/2 161/172/2 148/173/2 162/174/2
f 168/175/1 156/176/1 145/177/1 164/178/1
f 169/179/5 159/180/5 147/181/5 162/182/5
f 170/183/6 157/180/6 150/184/6 153/185/6
f 156/186/4 165/163/4 155/166/4 145/187/4
f 149/181/4 153/188/4 165/163/4 156/186/4
f 153/188/4 150/189/4 154/164/4 165/163/4
f 154/190/3 166/167/3 159/170/3 146/191/3
f 150/192/3 157/178/3 166/167/3 154/190/3
f 157/178/3 151/177/3 158/168/3 166/167/3
f 158/164/2 167/171/2 162/174/2 147/165/2
f 151/189/2 160/193/2 167/171/2 158/164/2
f 160/193/2 152/194/2 161/172/2 167/171/2
f 161/182/1 168/175/1 164/178/1 148/192/1
f 152/181/1 163/186/1 168/175/1 161/182/1
f 163/186/1 149/187/1 156/176/1 168/175/1
f 164/195/5 169/179/5 162/182/5 148/192/5
f 145/196/5 155/197/5 169/179/5 164/195/5
f 155/197/5 146/184/5 159/180/5 169/179/5
f 163/198/6 170/183/6 153/185/6 149/199/6
f 152/189/6 160/188/6 170/183/6 163/198/6
f 160/188/6 151/181/6 157/180/6 170/183/6
