# Made in Blockbench 4.0.5
mtllib mekatool_left.mtl

o override_mekatool_chest_left_arm_finger4
v -0.49062499999999976 0.71875 0.21875
v -0.49062499999999976 0.71875 0.031249999999999986
v -0.49062499999999976 0.65625 0.21875
v -0.49062499999999976 0.65625 0.031249999999999986
v -0.6156249999999998 0.71875 0.031249999999999986
v -0.6156249999999998 0.71875 0.21875
v -0.6156249999999998 0.65625 0.031249999999999986
v -0.6156249999999998 0.65625 0.21875
vt 0.40625 0.1875
vt 0.46875 0.1875
vt 0.46875 0.25
vt 0.40625 0.25
vt 0.40625 0.1875
vt 0.46875 0.1875
vt 0.46875 0.25
vt 0.40625 0.25
vt 0.40625 0.1875
vt 0.46875 0.1875
vt 0.46875 0.25
vt 0.40625 0.25
vt 0.40625 0.1875
vt 0.46875 0.1875
vt 0.46875 0.25
vt 0.40625 0.25
vt 0.40625 0.1875
vt 0.46875 0.1875
vt 0.46875 0.25
vt 0.40625 0.25
vt 0.40625 0.1875
vt 0.46875 0.1875
vt 0.46875 0.25
vt 0.40625 0.25
vn 0 0 -1
vn 1 0 0
vn 0 0 1
vn -1 0 0
vn 0 1 0
vn 0 -1 0
usemtl 3
f 4/4/1 7/3/1 5/2/1 2/1/1
f 3/8/2 4/7/2 2/6/2 1/5/2
f 8/12/3 3/11/3 1/10/3 6/9/3
f 7/16/4 8/15/4 6/14/4 5/13/4
f 6/20/5 1/19/5 2/18/5 5/17/5
f 7/24/6 4/23/6 3/22/6 8/21/6
o override_mekatool_chest_left_arm_finger2
v -0.49062499999999976 0.78125 0.21875
v -0.49062499999999976 0.78125 0.09374999999999994
v -0.49062499999999976 0.71875 0.21875
v -0.49062499999999976 0.71875 0.09374999999999994
v -0.6156249999999998 0.78125 0.09374999999999994
v -0.6156249999999998 0.78125 0.21875
v -0.6156249999999998 0.71875 0.09374999999999994
v -0.6156249999999998 0.71875 0.21875
vt 0.40625 0.125
vt 0.46875 0.125
vt 0.46875 0.1875
vt 0.40625 0.1875
vt 0.40625 0.125
vt 0.46875 0.125
vt 0.46875 0.1875
vt 0.40625 0.1875
vt 0.40625 0.125
vt 0.46875 0.125
vt 0.46875 0.1875
vt 0.40625 0.1875
vt 0.40625 0.125
vt 0.46875 0.125
vt 0.46875 0.1875
vt 0.40625 0.1875
vt 0.40625 0.125
vt 0.46875 0.125
vt 0.46875 0.1875
vt 0.40625 0.1875
vn 0 0 -1
vn 1 0 0
vn 0 0 1
vn -1 0 0
vn 0 1 0
usemtl 3
f 12/28/7 15/27/7 13/26/7 10/25/7
f 11/32/8 12/31/8 10/30/8 9/29/8
f 16/36/9 11/35/9 9/34/9 14/33/9
f 15/40/10 16/39/10 14/38/10 13/37/10
f 14/44/11 9/43/11 10/42/11 13/41/11
o override_mekatool_chest_left_arm_finger3
v -0.49062499999999976 0.84375 0.15624999999999978
v -0.49062499999999976 0.84375 0.09374999999999978
v -0.49062499999999976 0.78125 0.15624999999999978
v -0.49062499999999976 0.78125 0.09374999999999978
v -0.6156249999999998 0.84375 0.09374999999999978
v -0.6156249999999998 0.84375 0.15624999999999978
v -0.6156249999999998 0.78125 0.09374999999999978
v -0.6156249999999998 0.78125 0.15624999999999978
vt 0.40625 0.1875
vt 0.46875 0.1875
vt 0.46875 0.25
vt 0.40625 0.25
vt 0.40625 0.1875
vt 0.46875 0.1875
vt 0.46875 0.25
vt 0.40625 0.25
vt 0.40625 0.1875
vt 0.46875 0.1875
vt 0.46875 0.25
vt 0.40625 0.25
vt 0.40625 0.1875
vt 0.46875 0.1875
vt 0.46875 0.25
vt 0.40625 0.25
vn 0 0 -1
vn 1 0 0
vn 0 0 1
vn -1 0 0
usemtl 3
f 20/48/12 23/47/12 21/46/12 18/45/12
f 19/52/13 20/51/13 18/50/13 17/49/13
f 24/56/14 19/55/14 17/54/14 22/53/14
f 23/60/15 24/59/15 22/58/15 21/57/15
o override_mekatool_chest_left_arm_finger1
v -0.49062499999999976 0.90625 0.15624999999999956
v -0.49062499999999976 0.90625 0.09374999999999956
v -0.49062499999999976 0.84375 0.15624999999999956
v -0.49062499999999976 0.84375 0.09374999999999956
v -0.6156249999999998 0.90625 0.09374999999999956
v -0.6156249999999998 0.90625 0.15624999999999956
v -0.6156249999999998 0.84375 0.09374999999999956
v -0.6156249999999998 0.84375 0.15624999999999956
vt 0.40625 0.125
vt 0.46875 0.125
vt 0.46875 0.1875
vt 0.40625 0.1875
vt 0.40625 0.125
vt 0.46875 0.125
vt 0.46875 0.1875
vt 0.40625 0.1875
vt 0.40625 0.125
vt 0.46875 0.125
vt 0.46875 0.1875
vt 0.40625 0.1875
vt 0.40625 0.125
vt 0.46875 0.125
vt 0.46875 0.1875
vt 0.40625 0.1875
vt 0.40625 0.125
vt 0.46875 0.125
vt 0.46875 0.1875
vt 0.40625 0.1875
vn 0 0 -1
vn 1 0 0
vn 0 0 1
vn -1 0 0
vn 0 1 0
usemtl 3
f 28/64/16 31/63/16 29/62/16 26/61/16
f 27/68/17 28/67/17 26/66/17 25/65/17
f 32/72/18 27/71/18 25/70/18 30/69/18
f 31/76/19 32/75/19 30/74/19 29/73/19
f 30/80/20 25/79/20 26/78/20 29/77/20
o override_mekatool_chest_left_arm_lower_plate
v -0.39094301334284254 0.9684375 0.09375000000000008
v -0.39094301334284254 0.9684375 -0.15624999999999983
v -0.39094301334284254 0.7184375 0.09375000000000008
v -0.39094301334284254 0.7184375 -0.15624999999999983
v -0.5784430133428425 0.9684375 -0.15624999999999983
v -0.5784430133428425 0.9684375 0.09375000000000008
v -0.5784430133428425 0.7184375 -0.15624999999999983
v -0.5784430133428425 0.7184375 0.09375000000000008
vt 0.25 0.125
vt 0.15625 0.125
vt 0.15625 0
vt 0.25 0
vt 0.125 0.125
vt 0.25 0.125
vt 0.25 0
vt 0.125 0
vt 0.09375 1
vt 0.0625 1
vt 0.0625 0.9375
vt 0.09375 0.9375
vt 0.125 0.125
vt 0 0.125
vt 0 0
vt 0.125 0
vt 0.3125 0.125
vt 0.40625 0.125
vt 0.40625 0
vt 0.3125 0
vt 0.25 0.09375
vt 0.15625 0.09375
vt 0.15625 0
vt 0.25 0
vn 0 0 -1
vn 1 0 0
vn 0 0 1
vn -1 0 0
vn 0 1 0
vn 0 -1 0
usemtl 6
f 36/84/21 39/83/21 37/82/21 34/81/21
f 35/88/22 36/87/22 34/86/22 33/85/22
f 40/92/23 35/91/23 33/90/23 38/89/23
f 39/96/24 40/95/24 38/94/24 37/93/24
f 38/100/25 33/99/25 34/98/25 37/97/25
f 39/104/26 36/103/26 35/102/26 40/101/26
o override_mekatool_chest_left_arm_exo_brace3
v -0.42874999999999963 0.997334477502699 0.23454529812915428
v -0.42874999999999963 1.029686858140514 0.11380456984302068
v -0.42874999999999963 0.695482656787365 0.15366434653461652
v -0.42874999999999963 0.7278350374251801 0.032923618248482917
v -0.5537499999999996 1.029686858140514 0.11380456984302068
v -0.5537499999999996 0.997334477502699 0.23454529812915428
v -0.5537499999999996 0.7278350374251801 0.032923618248482917
v -0.5537499999999996 0.695482656787365 0.15366434653461652
vt 0.78125 0.875
vt 0.84375 0.875
vt 0.84375 0.71875
vt 0.78125 0.71875
vt 0.8125 0.875
vt 0.75 0.875
vt 0.75 0.71875
vt 0.8125 0.71875
vt 0.8125 0.875
vt 0.78125 0.875
vt 0.78125 0.71875
vt 0.8125 0.71875
vt 0.8125 0.875
vt 0.875 0.875
vt 0.875 0.71875
vt 0.8125 0.71875
vt 0.84375 0.71875
vt 0.78125 0.71875
vt 0.78125 0.65625
vt 0.84375 0.65625
vn 0 0.25881904510252074 -0.9659258262890683
vn 1 0 0
vn 0 -0.25881904510252074 0.9659258262890683
vn -1 0 0
vn 0 0.9659258262890683 0.25881904510252074
usemtl 5
f 44/108/27 47/107/27 45/106/27 42/105/27
f 43/112/28 44/111/28 42/110/28 41/109/28
f 48/116/29 43/115/29 41/114/29 46/113/29
f 47/120/30 48/119/30 46/118/30 45/117/30
f 46/124/31 41/123/31 42/122/31 45/121/31
o mekatool_left_arm_chamber
v -0.45344301334284254 1.03125 0.03125000000000036
v -0.45344301334284254 1.03125 -0.09374999999999964
v -0.45344301334284254 0.78125 0.03125000000000036
v -0.45344301334284254 0.78125 -0.09374999999999964
v -0.6409430133428425 1.03125 -0.09374999999999964
v -0.6409430133428425 1.03125 0.03125000000000036
v -0.6409430133428425 0.78125 -0.09374999999999964
v -0.6409430133428425 0.78125 0.03125000000000036
vt 0.09375 1
vt 0.0625 1
vt 0.0625 0.9375
vt 0.09375 0.9375
vt 0.0625 0.34375
vt 0 0.34375
vt 0 0.21875
vt 0.0625 0.21875
vt 0.4375 0.125
vt 0.34375 0.125
vt 0.34375 0
vt 0.4375 0
vt 0.09375 1
vt 0.0625 1
vt 0.0625 0.9375
vt 0.09375 0.9375
vt 0 0.125
vt 0.09375 0.125
vt 0.09375 0.0625
vt 0 0.0625
vt 0.09375 1
vt 0.0625 1
vt 0.0625 0.9375
vt 0.09375 0.9375
vn 0 0 -1
vn 1 0 0
vn 0 0 1
vn -1 0 0
vn 0 1 0
vn 0 -1 0
usemtl 6
f 52/128/32 55/127/32 53/126/32 50/125/32
f 51/132/33 52/131/33 50/130/33 49/129/33
f 56/136/34 51/135/34 49/134/34 54/133/34
f 55/140/35 56/139/35 54/138/35 53/137/35
f 54/144/36 49/143/36 50/142/36 53/141/36
f 55/148/37 52/147/37 51/146/37 56/145/37
o mekatool_left_arm_cartridge1
v -0.36562499999999976 0.6329598013296693 0.3129694349839006
v -0.36562499999999976 0.7936567037513041 0.1214583242041561
v -0.36562499999999976 0.5372042459397971 0.23262098377308318
v -0.36562499999999976 0.6979011483614319 0.041109872993338674
v -0.49062499999999976 0.7936567037513041 0.1214583242041561
v -0.49062499999999976 0.6329598013296693 0.3129694349839006
v -0.49062499999999976 0.6979011483614319 0.041109872993338674
v -0.49062499999999976 0.5372042459397971 0.23262098377308318
vt 0.25 1
vt 0.21875 1
vt 0.21875 0.96875
vt 0.25 0.96875
vt 0.25 1
vt 0.21875 1
vt 0.21875 0.96875
vt 0.25 0.96875
vt 0.25 1
vt 0.21875 1
vt 0.21875 0.96875
vt 0.25 0.96875
vt 0.25 1
vt 0.21875 1
vt 0.21875 0.96875
vt 0.25 0.96875
vt 0.25 1
vt 0.1875 1
vt 0.1875 0.9375
vt 0.25 0.9375
vt 0.25 1
vt 0.21875 1
vt 0.21875 0.96875
vt 0.25 0.96875
vn 0 0.6427876096865394 -0.7660444431189781
vn 1 0 0
vn 0 -0.6427876096865394 0.7660444431189781
vn -1 0 0
vn 0 0.7660444431189781 0.6427876096865394
vn 0 -0.7660444431189781 -0.6427876096865394
usemtl 6
f 60/152/38 63/151/38 61/150/38 58/149/38
f 59/156/39 60/155/39 58/154/39 57/153/39
f 64/160/40 59/159/40 57/158/40 62/157/40
f 63/164/41 64/163/41 62/162/41 61/161/41
f 62/168/42 57/167/42 58/166/42 61/165/42
f 63/172/43 60/171/43 59/170/43 64/169/43
o mekatool_left_arm_cartridge2
v -0.30312499999999987 0.6119168393959975 0.3976529179638278
v -0.30312499999999987 0.6922652906068149 0.3018973625739556
v -0.30312499999999987 0.4682835063111891 0.27713024114760165
v -0.30312499999999987 0.5486319575220064 0.18137468575772944
v -0.5531249999999998 0.6922652906068149 0.3018973625739556
v -0.5531249999999998 0.6119168393959975 0.3976529179638278
v -0.5531249999999998 0.5486319575220064 0.18137468575772944
v -0.5531249999999998 0.4682835063111891 0.27713024114760165
vt 0.8125 0.03125
vt 0.9375 0.03125
vt 0.9375 0.125
vt 0.8125 0.125
vt 0.875 0
vt 0.875 0.0625
vt 0.78125 0.0625
vt 0.78125 0
vt 0.6875 0.1875
vt 0.8125 0.1875
vt 0.8125 0.09375
vt 0.6875 0.09375
vt 0.75 0.0625
vt 0.75 0
vt 0.875 0
vt 0.875 0.0625
vt 0.9375 0.0625
vt 0.8125 0.0625
vt 0.8125 0
vt 0.9375 0
vt 0.71875 0
vt 0.84375 0
vt 0.84375 0.0625
vt 0.71875 0.0625
vn 0 0.6427876096865394 -0.7660444431189781
vn 1 0 0
vn 0 -0.6427876096865394 0.7660444431189781
vn -1 0 0
vn 0 0.7660444431189781 0.6427876096865394
vn 0 -0.7660444431189781 -0.6427876096865394
usemtl 6
f 68/176/44 71/175/44 69/174/44 66/173/44
f 67/180/45 68/179/45 66/178/45 65/177/45
f 72/184/46 67/183/46 65/182/46 70/181/46
f 71/188/47 72/187/47 70/186/47 69/185/47
f 70/192/48 65/191/48 66/190/48 69/189/48
f 71/196/49 68/195/49 67/194/49 72/193/49
o mekatool_left_arm_barrel1
v -0.32844301334284254 0.71875 0.15625
v -0.32844301334284254 0.71875 -0.09375
v -0.32844301334284254 0.59375 0.15625
v -0.32844301334284254 0.59375 -0.09375
v -0.5784430133428425 0.71875 -0.09375
v -0.5784430133428425 0.71875 0.15625
v -0.5784430133428425 0.59375 -0.09375
v -0.5784430133428425 0.59375 0.15625
vt 0.8125 0.15625
vt 0.84375 0.15625
vt 0.84375 0.09375
vt 0.8125 0.09375
vt 0.90625 0.09375
vt 0.78125 0.09375
vt 0.78125 0.03125
vt 0.90625 0.03125
vt 0.125 1
vt 0.09375 1
vt 0.09375 0.9375
vt 0.125 0.9375
vt 0.3125 0.125
vt 0.3125 0
vt 0.25 0
vt 0.25 0.125
vt 0.9375 0.3125
vt 0.8125 0.3125
vt 0.8125 0.1875
vt 0.9375 0.1875
vt 0.9375 0.3125
vt 0.8125 0.3125
vt 0.8125 0.1875
vt 0.9375 0.1875
vn 0 0 -1
vn 1 0 0
vn 0 0 1
vn -1 0 0
vn 0 1 0
vn 0 -1 0
usemtl 6
f 76/200/50 79/199/50 77/198/50 74/197/50
f 75/204/51 76/203/51 74/202/51 73/201/51
f 80/208/52 75/207/52 73/206/52 78/205/52
f 79/212/53 80/211/53 78/210/53 77/209/53
f 78/216/54 73/215/54 74/214/54 77/213/54
f 79/220/55 76/219/55 75/218/55 80/217/55
o mekatool_left_arm_barrel2
v -0.3781249999999998 0.5991972339217286 -0.03148783136926582
v -0.3781249999999998 0.59375 -0.09374999999999992
v -0.3781249999999998 0.22562422213732403 0.0011955721611059955
v -0.3781249999999998 0.2201769882155954 -0.0610665964696281
v -0.5343749999999998 0.59375 -0.09374999999999992
v -0.5343749999999998 0.5991972339217286 -0.03148783136926582
v -0.5343749999999998 0.2201769882155954 -0.0610665964696281
v -0.5343749999999998 0.22562422213732403 0.0011955721611059955
vt 1 0.4375
vt 0.96875 0.4375
vt 0.96875 0.21875
vt 1 0.21875
vt 1 0.4375
vt 0.96875 0.4375
vt 0.96875 0.21875
vt 1 0.21875
vt 1 0.4375
vt 0.96875 0.4375
vt 0.96875 0.21875
vt 1 0.21875
vt 1 0.4375
vt 0.96875 0.4375
vt 0.96875 0.21875
vt 1 0.21875
vt 0.9375 0.09375
vt 0.84375 0.09375
vt 0.84375 0.0625
vt 0.9375 0.0625
vn 0 -0.08715574274765818 -0.9961946980917455
vn 1 0 0
vn 0 0.08715574274765818 0.9961946980917455
vn -1 0 0
vn 0 -0.9961946980917455 0.08715574274765818
usemtl 6
f 84/224/56 87/223/56 85/222/56 82/221/56
f 83/228/57 84/227/57 82/226/57 81/225/57
f 88/232/58 83/231/58 81/230/58 86/229/58
f 87/236/59 88/235/59 86/234/59 85/233/59
f 87/240/60 84/239/60 83/238/60 88/237/60
o mekatool_left_arm_barrel_heatsink
v -0.4249999999999998 0.7328094408964919 -0.09535187095092251
v -0.4249999999999998 0.7187500000000003 -0.15624999999999972
v -0.4249999999999998 0.3674206666020287 -0.01099522557197316
v -0.4249999999999998 0.35336122570553713 -0.07189335462105036
v -0.4874999999999998 0.7187500000000003 -0.15624999999999972
v -0.4874999999999998 0.7328094408964919 -0.09535187095092251
v -0.4874999999999998 0.35336122570553713 -0.07189335462105036
v -0.4874999999999998 0.3674206666020287 -0.01099522557197316
vt 0.96875 0.21875
vt 1 0.21875
vt 1 0.03125
vt 0.96875 0.03125
vt 1 0.21875
vt 0.96875 0.21875
vt 0.96875 0.03125
vt 1 0.03125
vt 1 0.21875
vt 0.96875 0.21875
vt 0.96875 0.03125
vt 1 0.03125
vn 0 -0.22495105434386498 -0.9743700647852352
vn 1 0 0
vn -1 0 0
usemtl 6
f 92/244/61 95/243/61 93/242/61 90/241/61
f 91/248/62 92/247/62 90/246/62 89/245/62
f 95/252/63 96/251/63 94/250/63 93/249/63
o mekatool_left_arm_barrel_scope
v -0.4093749999999998 0.3677338458144021 -0.03474595342500836
v -0.4093749999999998 0.3514543291581274 -0.12707168026990284
v -0.4093749999999998 0.3061833612511391 -0.0238929423208252
v -0.4093749999999998 0.2899038445948644 -0.11621866916571971
v -0.5031249999999998 0.3514543291581274 -0.12707168026990284
v -0.5031249999999998 0.3677338458144021 -0.03474595342500836
v -0.5031249999999998 0.2899038445948644 -0.11621866916571971
v -0.5031249999999998 0.3061833612511391 -0.0238929423208252
vt 0.21875 1
vt 0.1875 1
vt 0.1875 0.96875
vt 0.21875 0.96875
vt 0.21875 1
vt 0.1875 1
vt 0.1875 0.96875
vt 0.21875 0.96875
vt 0.21875 1
vt 0.1875 1
vt 0.1875 0.96875
vt 0.21875 0.96875
vt 0.21875 1
vt 0.1875 1
vt 0.1875 0.96875
vt 0.21875 0.96875
vt 1 1
vt 0.90625 1
vt 0.90625 0.90625
vt 1 0.90625
vt 0.90625 0.90625
vt 1 0.90625
vt 1 1
vt 0.90625 1
vn 0 -0.17364817766693033 -0.984807753012208
vn 1 0 0
vn 0 0.17364817766693033 0.984807753012208
vn -1 0 0
vn 0 0.984807753012208 -0.17364817766693033
vn 0 -0.984807753012208 0.17364817766693033
usemtl 6
f 100/256/64 103/255/64 101/254/64 98/253/64
f 99/260/65 100/259/65 98/258/65 97/257/65
f 104/264/66 99/263/66 97/262/66 102/261/66
f 103/268/67 104/267/67 102/266/67 101/265/67
f 102/272/68 97/271/68 98/270/68 101/269/68
f 103/276/69 100/275/69 99/274/69 104/273/69
o mekatool_left_arm_barrel_sight_led
v -0.4406249999999998 0.3619745115090092 -0.06795519002645223
v -0.4406249999999998 0.3565480059569176 -0.09873043230808373
v -0.4406249999999998 0.2998085221001136 -0.05699364881122726
v -0.4406249999999998 0.294382016548022 -0.08776889109285876
v -0.4718749999999998 0.3565480059569176 -0.09873043230808373
v -0.4718749999999998 0.3619745115090092 -0.06795519002645223
v -0.4718749999999998 0.294382016548022 -0.08776889109285876
v -0.4718749999999998 0.2998085221001136 -0.05699364881122726
vt 0 1
vt 0.125 1
vt 0.125 0.875
vt 0 0.875
vt 0 1
vt 0.125 1
vt 0.125 0.875
vt 0 0.875
vt 0 1
vt 0.125 1
vt 0.125 0.875
vt 0 0.875
vt 0 1
vt 0.125 1
vt 0.125 0.875
vt 0 0.875
vt 0 1
vt 0.125 1
vt 0.125 0.875
vt 0 0.875
vt 0 1
vt 0.125 1
vt 0.125 0.875
vt 0 0.875
vn 0 -0.17364817766693033 -0.984807753012208
vn 1 0 0
vn 0 0.17364817766693033 0.984807753012208
vn -1 0 0
vn 0 0.984807753012208 -0.17364817766693033
vn 0 -0.984807753012208 0.17364817766693033
usemtl 4
f 108/280/70 111/279/70 109/278/70 106/277/70
f 107/284/71 108/283/71 106/282/71 105/281/71
f 112/288/72 107/287/72 105/286/72 110/285/72
f 111/292/73 112/291/73 110/290/73 109/289/73
f 110/296/74 105/295/74 106/294/74 109/293/74
f 111/300/75 108/299/75 107/298/75 112/297/75
o mekatool_left_arm_barrel3
v -0.32844301334284254 0.59375 0.15624999999999992
v -0.33013290536295364 0.5993658878647129 0.09402575980012817
v -0.3677542283958328 0.15968928566656632 0.11814259070197994
v -0.36944412041594393 0.16530517353127921 0.055918350502108194
v -0.3923571455628254 0.6048098034787157 0.09620697834403448
v -0.39066725354271425 0.5991939156140028 0.15843121854390624
v -0.4316683606158157 0.17074908914528208 0.0580995690460145
v -0.42997846859570454 0.1651332012805692 0.12032380924588626
vt 1 0.4375
vt 0.96875 0.4375
vt 0.96875 0.21875
vt 1 0.21875
vt 1 0.4375
vt 0.96875 0.4375
vt 0.96875 0.21875
vt 1 0.21875
vt 1 0.4375
vt 0.96875 0.4375
vt 0.96875 0.21875
vt 1 0.21875
vt 1 0.4375
vt 0.96875 0.4375
vt 0.96875 0.21875
vt 1 0.21875
vt 1 0.25
vt 0.96875 0.25
vt 0.96875 0.21875
vt 1 0.21875
vn -0.02703827232177799 0.08985420583540635 -0.9955878431979479
vn 0.9955878431979481 -0.08710264982404567 -0.03489949670250098
vn 0.02703827232177799 -0.08985420583540635 0.9955878431979479
vn -0.9955878431979481 0.08710264982404567 0.03489949670250098
vn -0.08985420583540636 -0.9921387756192771 -0.08710264982404567
usemtl 6
f 116/304/76 119/303/76 117/302/76 114/301/76
f 115/308/77 116/307/77 114/306/77 113/305/77
f 120/312/78 115/311/78 113/310/78 118/309/78
f 119/316/79 120/315/79 118/314/79 117/313/79
f 119/320/80 116/319/80 115/318/80 120/317/80
o mekatool_left_arm_barrel4
v -0.5162187731429709 0.5991939156140028 0.15843121854390632
v -0.5145288811228598 0.6048098034787157 0.09620697834403458
v -0.47690755808998064 0.1651332012805692 0.12032380924588634
v -0.47521766606986954 0.17074908914528208 0.0580995690460146
v -0.5767531213227314 0.5993658878647129 0.09402575980012828
v -0.5784430133428425 0.59375 0.15625
v -0.5374419062697411 0.16530517353127921 0.055918350502108305
v -0.5391317982898522 0.15968928566656632 0.11814259070198002
vt 1 0.4375
vt 0.96875 0.4375
vt 0.96875 0.21875
vt 1 0.21875
vt 1 0.4375
vt 0.96875 0.4375
vt 0.96875 0.21875
vt 1 0.21875
vt 1 0.4375
vt 0.96875 0.4375
vt 0.96875 0.21875
vt 1 0.21875
vt 1 0.4375
vt 0.96875 0.4375
vt 0.96875 0.21875
vt 1 0.21875
vt 1 0.25
vt 0.96875 0.25
vt 0.96875 0.21875
vt 1 0.21875
vn 0.02703827232177799 0.08985420583540635 -0.9955878431979479
vn 0.9955878431979481 0.08710264982404567 0.03489949670250098
vn -0.02703827232177799 -0.08985420583540635 0.9955878431979479
vn -0.9955878431979481 -0.08710264982404567 -0.03489949670250098
vn 0.08985420583540636 -0.9921387756192771 -0.08710264982404567
usemtl 6
f 124/324/81 127/323/81 125/322/81 122/321/81
f 123/328/82 124/327/82 122/326/82 121/325/82
f 128/332/83 123/331/83 121/330/83 126/329/83
f 127/336/84 128/335/84 126/334/84 125/333/84
f 127/340/85 124/339/85 123/338/85 128/337/85
o mekatool_left_arm_rod_ring1
v -0.4062499999999998 0.59375 0.078125
v -0.4062499999999998 0.59375 -0.015625
v -0.4062499999999998 0.46875 0.078125
v -0.4062499999999998 0.46875 -0.015625
v -0.4999999999999998 0.59375 -0.015625
v -0.4999999999999998 0.59375 0.078125
v -0.4999999999999998 0.46875 -0.015625
v -0.4999999999999998 0.46875 0.078125
vt 0.0625 0.53125
vt 0.03125 0.53125
vt 0.03125 0.46875
vt 0.0625 0.46875
vt 0.0625 0.53125
vt 0.03125 0.53125
vt 0.03125 0.46875
vt 0.0625 0.46875
vt 0.0625 0.53125
vt 0.03125 0.53125
vt 0.03125 0.46875
vt 0.0625 0.46875
vt 0.0625 0.53125
vt 0.03125 0.53125
vt 0.03125 0.46875
vt 0.0625 0.46875
vt 0.0625 0.53125
vt 0.03125 0.53125
vt 0.03125 0.5
vt 0.0625 0.5
vn 0 0 -1
vn 1 0 0
vn 0 0 1
vn -1 0 0
vn 0 -1 0
usemtl 6
f 132/344/86 135/343/86 133/342/86 130/341/86
f 131/348/87 132/347/87 130/346/87 129/345/87
f 136/352/88 131/351/88 129/350/88 134/349/88
f 135/356/89 136/355/89 134/354/89 133/353/89
f 135/360/90 132/359/90 131/358/90 136/357/90
o mekatool_left_arm_rod_ring2
v -0.4062499999999998 0.40625 0.078125
v -0.4062499999999998 0.40625 -0.015625
v -0.4062499999999998 0.34375 0.078125
v -0.4062499999999998 0.34375 -0.015625
v -0.4999999999999998 0.40625 -0.015625
v -0.4999999999999998 0.40625 0.078125
v -0.4999999999999998 0.34375 -0.015625
v -0.4999999999999998 0.34375 0.078125
vt 0.0625 0.5
vt 0.03125 0.5
vt 0.03125 0.46875
vt 0.0625 0.46875
vt 0.0625 0.5
vt 0.03125 0.5
vt 0.03125 0.46875
vt 0.0625 0.46875
vt 0.0625 0.5
vt 0.03125 0.5
vt 0.03125 0.46875
vt 0.0625 0.46875
vt 0.0625 0.5
vt 0.03125 0.5
vt 0.03125 0.46875
vt 0.0625 0.46875
vt 0.0625 0.5
vt 0.03125 0.5
vt 0.03125 0.46875
vt 0.0625 0.46875
vt 0.0625 0.5
vt 0.03125 0.5
vt 0.03125 0.46875
vt 0.0625 0.46875
vn 0 0 -1
vn 1 0 0
vn 0 0 1
vn -1 0 0
vn 0 1 0
vn 0 -1 0
usemtl 6
f 140/364/91 143/363/91 141/362/91 138/361/91
f 139/368/92 140/367/92 138/366/92 137/365/92
f 144/372/93 139/371/93 137/370/93 142/369/93
f 143/376/94 144/375/94 142/374/94 141/373/94
f 142/380/95 137/379/95 138/378/95 141/377/95
f 143/384/96 140/383/96 139/382/96 144/381/96
o mekatool_left_arm_rod
v -0.4218749999999998 0.59375 0.0625
v -0.4218749999999998 0.59375 0
v -0.4218749999999998 0.28125 0.0625
v -0.4218749999999998 0.28125 0
v -0.4843749999999998 0.59375 0
v -0.4843749999999998 0.59375 0.0625
v -0.4843749999999998 0.28125 0
v -0.4843749999999998 0.28125 0.0625
vt 0.03125 1
vt 0 1
vt 0 0.96875
vt 0.03125 0.96875
vt 0.03125 1
vt 0 1
vt 0 0.96875
vt 0.03125 0.96875
vt 0.03125 1
vt 0 1
vt 0 0.96875
vt 0.03125 0.96875
vt 0.03125 1
vt 0 1
vt 0 0.96875
vt 0.03125 0.96875
vt 0.03125 1
vt 0 1
vt 0 0.96875
vt 0.03125 0.96875
vt 0.03125 1
vt 0 1
vt 0 0.96875
vt 0.03125 0.96875
vn 0 0 -1
vn 1 0 0
vn 0 0 1
vn -1 0 0
vn 0 1 0
vn 0 -1 0
usemtl 4
f 148/388/97 151/387/97 149/386/97 146/385/97
f 147/392/98 148/391/98 146/390/98 145/389/98
f 152/396/99 147/395/99 145/394/99 150/393/99
f 151/400/100 152/399/100 150/398/100 149/397/100
f 150/404/101 145/403/101 146/402/101 149/401/101
f 151/408/102 148/407/102 147/406/102 152/405/102